<?xml version="1.0" encoding="UTF-8" standalone="no"?>
<!-- Created with Inkscape (http://www.inkscape.org/) -->

<svg
   xmlns:dc="http://purl.org/dc/elements/1.1/"
   xmlns:cc="http://creativecommons.org/ns#"
   xmlns:rdf="http://www.w3.org/1999/02/22-rdf-syntax-ns#"
   xmlns:svg="http://www.w3.org/2000/svg"
   xmlns="http://www.w3.org/2000/svg"
   xmlns:xlink="http://www.w3.org/1999/xlink"
   xmlns:sodipodi="http://sodipodi.sourceforge.net/DTD/sodipodi-0.dtd"
   xmlns:inkscape="http://www.inkscape.org/namespaces/inkscape"
   id="svg2"
   version="1.1"
   inkscape:version="0.47pre4 r22446"
   width="1206"
   height="771"
   sodipodi:docname="arcuate_zhang2.svg"
   inkscape:export-filename="/home/eg309/Documents/eleftherios_thesis/arcuate_zhang2.png"
   inkscape:export-xdpi="200"
   inkscape:export-ydpi="200">
  <metadata
     id="metadata8">
    <rdf:RDF>
      <cc:Work
         rdf:about="">
        <dc:format>image/svg+xml</dc:format>
        <dc:type
           rdf:resource="http://purl.org/dc/dcmitype/StillImage" />
        <dc:title></dc:title>
      </cc:Work>
    </rdf:RDF>
  </metadata>
  <defs
     id="defs6">
    <inkscape:perspective
       sodipodi:type="inkscape:persp3d"
       inkscape:vp_x="0 : 0.5 : 1"
       inkscape:vp_y="0 : 1000 : 0"
       inkscape:vp_z="1 : 0.5 : 1"
       inkscape:persp3d-origin="0.5 : 0.33333333 : 1"
       id="perspective10" />
  </defs>
  <sodipodi:namedview
     pagecolor="#ffffff"
     bordercolor="#666666"
     borderopacity="1"
     objecttolerance="10"
     gridtolerance="10"
     guidetolerance="10"
     inkscape:pageopacity="0"
     inkscape:pageshadow="2"
     inkscape:window-width="1366"
     inkscape:window-height="694"
     id="namedview4"
     showgrid="false"
     inkscape:zoom="0.61219196"
     inkscape:cx="428.16599"
     inkscape:cy="393.1774"
     inkscape:window-x="0"
     inkscape:window-y="25"
     inkscape:window-maximized="1"
     inkscape:current-layer="layer1" />
  <image
     xlink:href="file:///home/eg309/Documents/eleftherios_thesis/pbc_figures/arcuate_zhang.png"
     width="1206"
     height="771"
     id="image12"
     x="0"
     y="0"
     style="fill:#ffff00" />
  <g
     inkscape:groupmode="layer"
     id="layer1"
     inkscape:label="Layer">
    <path
       style="fill:none;stroke:#bfd700;stroke-width:7;stroke-linecap:butt;stroke-linejoin:miter;stroke-miterlimit:4;stroke-opacity:1;stroke-dasharray:none"
       d="m 143.74577,287.49152 c 39.64675,-13.68436 76.29936,10.65939 75.13983,53.90467 5.01186,34.05178 32.27362,55.2486 64.36752,64.00758 40.86904,12.22452 81.11692,26.52294 122.42877,37.50033 30.33489,11.30482 62.17766,19.40967 88.65374,37.94614 25.82753,15.27295 39.82783,43.87808 63.13639,60.97624 26.19482,14.24259 50.50676,31.13552 78.6245,41.40743 48.50829,21.03549 102.58081,15.21084 152.96586,5.707 26.00573,-11.57414 55.49238,-20.86121 78.72536,-36.90573 41.79057,-17.84693 31.31836,-69.6699 37.39164,-105.99202 7.9487,-37.58537 22.59878,-72.47694 34.43724,-108.81911 5.14307,-36.7214 26.55989,-66.32229 47.88521,-95.21903 3.15868,-13.50341 15.12197,-17.5334 26.88587,-21.48596"
       id="path2825" />
  </g>
</svg>
