<?xml version="1.0" encoding="UTF-8" standalone="no"?>
<!-- Created with Inkscape (http://www.inkscape.org/) -->
<svg
   xmlns:dc="http://purl.org/dc/elements/1.1/"
   xmlns:cc="http://creativecommons.org/ns#"
   xmlns:rdf="http://www.w3.org/1999/02/22-rdf-syntax-ns#"
   xmlns:svg="http://www.w3.org/2000/svg"
   xmlns="http://www.w3.org/2000/svg"
   xmlns:sodipodi="http://sodipodi.sourceforge.net/DTD/sodipodi-0.dtd"
   xmlns:inkscape="http://www.inkscape.org/namespaces/inkscape"
   width="621.09003"
   height="585.35999"
   id="svg2"
   sodipodi:version="0.32"
   inkscape:version="0.46"
   version="1.0"
   sodipodi:docname="model_ismrm.svg"
   inkscape:output_extension="org.inkscape.output.svg.inkscape">
  <defs
     id="defs4">
    <marker
       inkscape:stockid="Arrow1Lend"
       orient="auto"
       refY="0"
       refX="0"
       id="Arrow1Lend"
       style="overflow:visible">
      <path
         id="path3206"
         d="M 0,0 L 5,-5 L -12.5,0 L 5,5 L 0,0 z"
         style="fill-rule:evenodd;stroke:#000000;stroke-width:1pt;marker-start:none"
         transform="matrix(-0.8,0,0,-0.8,-10,0)" />
    </marker>
    <inkscape:perspective
       sodipodi:type="inkscape:persp3d"
       inkscape:vp_x="0 : 526.18109 : 1"
       inkscape:vp_y="0 : 1000 : 0"
       inkscape:vp_z="744.09448 : 526.18109 : 1"
       inkscape:persp3d-origin="372.04724 : 350.78739 : 1"
       id="perspective10" />
  </defs>
  <sodipodi:namedview
     id="base"
     pagecolor="#ffffff"
     bordercolor="#666666"
     borderopacity="1.0"
     gridtolerance="10000"
     guidetolerance="10"
     objecttolerance="10"
     inkscape:pageopacity="0.0"
     inkscape:pageshadow="2"
     inkscape:zoom="0.7"
     inkscape:cx="340.05641"
     inkscape:cy="139.5372"
     inkscape:document-units="px"
     inkscape:current-layer="layer1"
     showgrid="false"
     inkscape:window-width="1280"
     inkscape:window-height="925"
     inkscape:window-x="1280"
     inkscape:window-y="24" />
  <metadata
     id="metadata7">
    <rdf:RDF>
      <cc:Work
         rdf:about="">
        <dc:format>image/svg+xml</dc:format>
        <dc:type
           rdf:resource="http://purl.org/dc/dcmitype/StillImage" />
      </cc:Work>
    </rdf:RDF>
  </metadata>
  <g
     inkscape:label="Layer 1"
     inkscape:groupmode="layer"
     id="layer1">
    <rect
       style="opacity:1;fill:#ffffff;fill-opacity:1;stroke:none;stroke-width:4.09999990000000025;stroke-miterlimit:4.80000019000000044;stroke-dasharray:none;stroke-dashoffset:0;stroke-opacity:1"
       id="rect5014"
       width="625.71429"
       height="588.57141"
       x="-1.4285715"
       y="-1.7828721" />
    <path
       style="fill:none;fill-rule:evenodd;stroke:#000000;stroke-width:4.1;stroke-linecap:butt;stroke-linejoin:miter;stroke-miterlimit:4.80000019;stroke-dasharray:none;stroke-opacity:1"
       d="M 156.57143,319.79074 C 146.48526,276.71416 215.91968,273.29664 222.39388,312.21791 C 243.04749,347.33569 272.91397,306.10666 292.26671,292.22424 C 323.92827,276.17976 326.67403,334.271 357.6207,328.54377 C 389.05839,326.28859 402.11886,274.44843 434.26196,287.54828 C 447.2159,296.31228 453.90431,316.75129 472.28571,315.50504"
       id="path2383" />
    <path
       style="fill:none;fill-rule:evenodd;stroke:#000000;stroke-width:2.50000000000000000;stroke-linecap:butt;stroke-linejoin:miter;marker-mid:url(#Arrow1Lend);stroke-miterlimit:4.80000019000000044;stroke-dasharray:none;stroke-opacity:1;fill-opacity:1"
       d="M 390,534.07648 C 381.21941,484.08723 407.3904,437.71687 428.63815,394.507 C 440.73937,369.13739 450.33249,342.25344 468.69097,320.42627 C 504.47755,274.698 539.33386,222.53486 541.23373,162.47163 C 542.99305,132.71712 531.98433,104.1303 516.28301,79.36637 C 509.26861,66.98976 502.1755,54.56729 497.14285,41.21933"
       id="path2416" />
    <path
       id="path2428"
       d="M 213.36729,528.51376 C 220.14345,478.49376 199.94674,432.09488 183.5494,388.85843 C 174.21063,363.47322 166.80742,336.57274 152.63979,314.73214 C 125.02252,268.97575 98.12316,216.78052 96.65699,156.68035 C 95.29929,126.90754 103.79495,98.303137 115.91199,73.523976 C 121.32516,61.139754 126.79906,48.709643 130.68286,35.353474"
       style="fill:none;fill-rule:evenodd;stroke:#000000;stroke-width:2.19686699;stroke-linecap:butt;stroke-linejoin:miter;marker-mid:url(#Arrow1Lend);stroke-miterlimit:4.80000019;stroke-dasharray:none;stroke-opacity:1" />
    <path
       sodipodi:type="arc"
       style="opacity:1;fill:#f80000;fill-opacity:1;stroke:#0000ff;stroke-width:4.0999999;stroke-miterlimit:4.80000019;stroke-dasharray:none;stroke-dashoffset:0;stroke-opacity:1"
       id="path5010"
       sodipodi:cx="86.428574"
       sodipodi:cy="356.78854"
       sodipodi:rx="7.8571429"
       sodipodi:ry="7.1428571"
       d="M 94.285717,356.78854 A 7.8571429,7.1428571 0 1 1 78.571431,356.78854 A 7.8571429,7.1428571 0 1 1 94.285717,356.78854 z"
       transform="translate(67.142857,-40)" />
    <path
       transform="translate(387.14286,-40)"
       d="M 94.285717,356.78854 A 7.8571429,7.1428571 0 1 1 78.571431,356.78854 A 7.8571429,7.1428571 0 1 1 94.285717,356.78854 z"
       sodipodi:ry="7.1428571"
       sodipodi:rx="7.8571429"
       sodipodi:cy="356.78854"
       sodipodi:cx="86.428574"
       id="path5012"
       style="opacity:1;fill:#f80000;fill-opacity:1;stroke:#0000ff;stroke-width:4.0999999;stroke-miterlimit:4.80000019;stroke-dasharray:none;stroke-dashoffset:0;stroke-opacity:1"
       sodipodi:type="arc" />
  </g>
</svg>
