<?xml version="1.0" encoding="UTF-8" standalone="no"?>
<!-- Created with Inkscape (http://www.inkscape.org/) -->

<svg
   xmlns:dc="http://purl.org/dc/elements/1.1/"
   xmlns:cc="http://creativecommons.org/ns#"
   xmlns:rdf="http://www.w3.org/1999/02/22-rdf-syntax-ns#"
   xmlns:svg="http://www.w3.org/2000/svg"
   xmlns="http://www.w3.org/2000/svg"
   xmlns:sodipodi="http://sodipodi.sourceforge.net/DTD/sodipodi-0.dtd"
   xmlns:inkscape="http://www.inkscape.org/namespaces/inkscape"
   width="601.21729"
   height="589.18872"
   id="svg2"
   version="1.1"
   inkscape:version="0.48.0 r9654"
   sodipodi:docname="New document 1">
  <defs
     id="defs4" />
  <sodipodi:namedview
     id="base"
     pagecolor="#ffffff"
     bordercolor="#666666"
     borderopacity="1.0"
     inkscape:pageopacity="0.0"
     inkscape:pageshadow="2"
     inkscape:zoom="0.7"
     inkscape:cx="259.68486"
     inkscape:cy="182.31844"
     inkscape:document-units="px"
     inkscape:current-layer="layer1"
     showgrid="false"
     inkscape:window-width="1280"
     inkscape:window-height="995"
     inkscape:window-x="1920"
     inkscape:window-y="56"
     inkscape:window-maximized="1"
     fit-margin-top="0"
     fit-margin-left="0.6"
     fit-margin-right="0.6"
     fit-margin-bottom="0.6" />
  <metadata
     id="metadata7">
    <rdf:RDF>
      <cc:Work
         rdf:about="">
        <dc:format>image/svg+xml</dc:format>
        <dc:type
           rdf:resource="http://purl.org/dc/dcmitype/StillImage" />
        <dc:title></dc:title>
      </cc:Work>
    </rdf:RDF>
  </metadata>
  <g
     inkscape:label="Layer 1"
     inkscape:groupmode="layer"
     id="layer1"
     transform="translate(-73.2485,-22.496396)">
    <rect
       style="fill:none;fill-opacity:1;stroke:none;stroke-width:4.30299997000000012;stroke-miterlimit:4;stroke-opacity:1;stroke-dasharray:none;stroke-dashoffset:0"
       id="rect4274"
       width="595.71429"
       height="584.28571"
       x="76"
       y="24.647896" />
    <rect
       transform="scale(-1,1)"
       style="fill:none;stroke:#000000;stroke-opacity:1"
       id="rect4035"
       width="105.71429"
       height="92.857147"
       x="-372.99878"
       y="73.21933" />
    <path
       style="fill:none;stroke:#000000;stroke-width:1px;stroke-linecap:butt;stroke-linejoin:miter;stroke-opacity:1"
       d="M 372.9988,164.6479 C 260.7738,71.39253 267.01129,74.51128 267.28452,74.64789 l 0,0 0,0"
       id="path4037"
       inkscape:connector-curvature="0"
       sodipodi:nodetypes="cccc" />
    <rect
       y="-166.07648"
       x="-266.99878"
       height="92.857147"
       width="105.71429"
       id="rect4039"
       style="fill:none;stroke:#000000;stroke-opacity:1"
       transform="scale(-1,-1)" />
    <path
       sodipodi:nodetypes="cccc"
       inkscape:connector-curvature="0"
       id="path4041"
       d="m 266.9988,74.64791 c -112.225,93.25537 -105.98751,90.13662 -105.71428,90.00001 l 0,0 0,0"
       style="fill:none;stroke:#000000;stroke-width:1px;stroke-linecap:butt;stroke-linejoin:miter;stroke-opacity:1" />
    <rect
       y="73.21933"
       x="-584.99878"
       height="92.857147"
       width="105.71429"
       id="rect4043"
       style="fill:none;stroke:#000000;stroke-opacity:1"
       transform="scale(-1,1)" />
    <path
       sodipodi:nodetypes="cccc"
       inkscape:connector-curvature="0"
       id="path4045"
       d="M 584.9988,164.6479 C 472.7738,71.39253 479.01129,74.51128 479.28452,74.64789 l 0,0 0,0"
       style="fill:none;stroke:#000000;stroke-width:1px;stroke-linecap:butt;stroke-linejoin:miter;stroke-opacity:1" />
    <rect
       transform="scale(-1,-1)"
       style="fill:none;stroke:#000000;stroke-opacity:1"
       id="rect4047"
       width="105.71429"
       height="92.857147"
       x="-478.99878"
       y="-166.07648" />
    <path
       style="fill:none;stroke:#000000;stroke-width:1px;stroke-linecap:butt;stroke-linejoin:miter;stroke-opacity:1"
       d="m 478.9988,74.64791 c -112.225,93.25537 -105.98751,90.13662 -105.71428,90.00001 l 0,0 0,0"
       id="path4049"
       inkscape:connector-curvature="0"
       sodipodi:nodetypes="cccc" />
    <rect
       y="-258.07648"
       x="-372.99878"
       height="92.857147"
       width="105.71429"
       id="rect4051"
       style="fill:none;stroke:#000000;stroke-opacity:1"
       transform="scale(-1,-1)" />
    <path
       sodipodi:nodetypes="cccc"
       inkscape:connector-curvature="0"
       id="path4053"
       d="m 372.9988,166.64791 c -112.225,93.25537 -105.98751,90.13662 -105.71428,90.00001 l 0,0 0,0"
       style="fill:none;stroke:#000000;stroke-width:1px;stroke-linecap:butt;stroke-linejoin:miter;stroke-opacity:1" />
    <rect
       transform="scale(-1,1)"
       style="fill:none;stroke:#000000;stroke-opacity:1"
       id="rect4055"
       width="105.71429"
       height="92.857147"
       x="-266.99878"
       y="165.21933" />
    <path
       style="fill:none;stroke:#000000;stroke-width:1px;stroke-linecap:butt;stroke-linejoin:miter;stroke-opacity:1"
       d="M 266.9988,256.6479 C 154.7738,163.39253 161.01129,166.51128 161.28452,166.64789 l 0,0 0,0"
       id="path4057"
       inkscape:connector-curvature="0"
       sodipodi:nodetypes="cccc" />
    <rect
       transform="scale(-1,-1)"
       style="fill:none;stroke:#000000;stroke-opacity:1"
       id="rect4059"
       width="105.71429"
       height="92.857147"
       x="-584.99878"
       y="-258.07648" />
    <path
       style="fill:none;stroke:#000000;stroke-width:1px;stroke-linecap:butt;stroke-linejoin:miter;stroke-opacity:1"
       d="m 584.9988,166.64791 c -112.225,93.25537 -105.98751,90.13662 -105.71428,90.00001 l 0,0 0,0"
       id="path4061"
       inkscape:connector-curvature="0"
       sodipodi:nodetypes="cccc" />
    <rect
       y="165.21933"
       x="-478.99878"
       height="92.857147"
       width="105.71429"
       id="rect4063"
       style="fill:none;stroke:#000000;stroke-opacity:1"
       transform="scale(-1,1)" />
    <path
       sodipodi:nodetypes="cccc"
       inkscape:connector-curvature="0"
       id="path4065"
       d="M 478.9988,256.6479 C 366.7738,163.39253 373.01129,166.51128 373.28452,166.64789 l 0,0 0,0"
       style="fill:none;stroke:#000000;stroke-width:1px;stroke-linecap:butt;stroke-linejoin:miter;stroke-opacity:1" />
    <text
       xml:space="preserve"
       style="font-size:34.48974609px;font-style:normal;font-weight:normal;line-height:125%;letter-spacing:0px;word-spacing:0px;fill:#000000;fill-opacity:1;stroke:none;font-family:Bitstream Vera Sans"
       x="334.33295"
       y="160.10086"
       id="text4067"
       sodipodi:linespacing="125%"
       transform="scale(1.0317333,0.96924272)"><tspan
         sodipodi:role="line"
         id="tspan4069"
         x="334.33295"
         y="160.10086">A</tspan></text>
    <text
       sodipodi:linespacing="125%"
       id="text4071"
       y="86.918739"
       x="106.8533"
       style="font-size:34.48974609px;font-style:normal;font-weight:normal;line-height:125%;letter-spacing:0px;word-spacing:0px;fill:#000000;fill-opacity:1;stroke:none;font-family:Bitstream Vera Sans"
       xml:space="preserve"
       transform="scale(1.0317333,0.96924272)"><tspan
         y="86.918739"
         x="106.8533"
         id="tspan4073"
         sodipodi:role="line">B</tspan></text>
    <path
       sodipodi:type="arc"
       style="fill:#000000;fill-opacity:1;stroke:#000000;stroke-width:4.30299997;stroke-miterlimit:4;stroke-opacity:1;stroke-dasharray:none;stroke-dashoffset:0"
       id="path4075"
       sodipodi:cx="278.57144"
       sodipodi:cy="629.50507"
       sodipodi:rx="7.1428571"
       sodipodi:ry="7.1428571"
       d="m 285.7143,629.50507 c 0,3.94489 -3.19797,7.14285 -7.14286,7.14285 -3.94489,0 -7.14286,-3.19796 -7.14286,-7.14285 0,-3.9449 3.19797,-7.14286 7.14286,-7.14286 3.94489,0 7.14286,3.19796 7.14286,7.14286 z"
       transform="translate(94.85714,-463.14286)" />
    <path
       transform="translate(-12.285715,-370.28572)"
       d="m 285.7143,629.50507 c 0,3.94489 -3.19797,7.14285 -7.14286,7.14285 -3.94489,0 -7.14286,-3.19796 -7.14286,-7.14285 0,-3.9449 3.19797,-7.14286 7.14286,-7.14286 3.94489,0 7.14286,3.19796 7.14286,7.14286 z"
       sodipodi:ry="7.1428571"
       sodipodi:rx="7.1428571"
       sodipodi:cy="629.50507"
       sodipodi:cx="278.57144"
       id="path4077"
       style="fill:#000000;fill-opacity:1;stroke:#000000;stroke-width:4.30299997;stroke-miterlimit:4;stroke-opacity:1;stroke-dasharray:none;stroke-dashoffset:0"
       sodipodi:type="arc" />
    <path
       sodipodi:type="arc"
       style="fill:#000000;fill-opacity:1;stroke:#000000;stroke-width:4.30299997;stroke-miterlimit:4;stroke-opacity:1;stroke-dasharray:none;stroke-dashoffset:0"
       id="path4079"
       sodipodi:cx="278.57144"
       sodipodi:cy="629.50507"
       sodipodi:rx="7.1428571"
       sodipodi:ry="7.1428571"
       d="m 285.7143,629.50507 c 0,3.94489 -3.19797,7.14285 -7.14286,7.14285 -3.94489,0 -7.14286,-3.19796 -7.14286,-7.14285 0,-3.9449 3.19797,-7.14286 7.14286,-7.14286 3.94489,0 7.14286,3.19796 7.14286,7.14286 z"
       transform="translate(-118,-554.57143)" />
    <path
       transform="translate(96.28571,-370.28572)"
       d="m 285.7143,629.50507 c 0,3.94489 -3.19797,7.14285 -7.14286,7.14285 -3.94489,0 -7.14286,-3.19796 -7.14286,-7.14285 0,-3.9449 3.19797,-7.14286 7.14286,-7.14286 3.94489,0 7.14286,3.19796 7.14286,7.14286 z"
       sodipodi:ry="7.1428571"
       sodipodi:rx="7.1428571"
       sodipodi:cy="629.50507"
       sodipodi:cx="278.57144"
       id="path4081"
       style="fill:#000000;fill-opacity:1;stroke:#000000;stroke-width:4.30299997;stroke-miterlimit:4;stroke-opacity:1;stroke-dasharray:none;stroke-dashoffset:0"
       sodipodi:type="arc" />
    <path
       sodipodi:type="arc"
       style="fill:#000000;fill-opacity:1;stroke:#000000;stroke-width:4.30299997;stroke-miterlimit:4;stroke-opacity:1;stroke-dasharray:none;stroke-dashoffset:0"
       id="path4083"
       sodipodi:cx="278.57144"
       sodipodi:cy="629.50507"
       sodipodi:rx="7.1428571"
       sodipodi:ry="7.1428571"
       d="m 285.7143,629.50507 c 0,3.94489 -3.19797,7.14285 -7.14286,7.14285 -3.94489,0 -7.14286,-3.19796 -7.14286,-7.14285 0,-3.9449 3.19797,-7.14286 7.14286,-7.14286 3.94489,0 7.14286,3.19796 7.14286,7.14286 z"
       transform="translate(-10.857142,-464.57143)" />
    <path
       transform="translate(306.28572,-554.57143)"
       d="m 285.7143,629.50507 c 0,3.94489 -3.19797,7.14285 -7.14286,7.14285 -3.94489,0 -7.14286,-3.19796 -7.14286,-7.14285 0,-3.9449 3.19797,-7.14286 7.14286,-7.14286 3.94489,0 7.14286,3.19796 7.14286,7.14286 z"
       sodipodi:ry="7.1428571"
       sodipodi:rx="7.1428571"
       sodipodi:cy="629.50507"
       sodipodi:cx="278.57144"
       id="path4085"
       style="fill:#000000;fill-opacity:1;stroke:#000000;stroke-width:4.30299997;stroke-miterlimit:4;stroke-opacity:1;stroke-dasharray:none;stroke-dashoffset:0"
       sodipodi:type="arc" />
    <path
       sodipodi:type="arc"
       style="fill:#000000;fill-opacity:1;stroke:#000000;stroke-width:4.30299997;stroke-miterlimit:4;stroke-opacity:1;stroke-dasharray:none;stroke-dashoffset:0"
       id="path4087"
       sodipodi:cx="278.57144"
       sodipodi:cy="629.50507"
       sodipodi:rx="7.1428571"
       sodipodi:ry="7.1428571"
       d="m 285.7143,629.50507 c 0,3.94489 -3.19797,7.14285 -7.14286,7.14285 -3.94489,0 -7.14286,-3.19796 -7.14286,-7.14285 0,-3.9449 3.19797,-7.14286 7.14286,-7.14286 3.94489,0 7.14286,3.19796 7.14286,7.14286 z"
       transform="translate(304.85715,-463.14286)" />
    <path
       sodipodi:type="arc"
       style="fill:#000000;fill-opacity:1;stroke:#000000;stroke-width:4.30299997;stroke-miterlimit:4;stroke-opacity:1;stroke-dasharray:none;stroke-dashoffset:0"
       id="path4089"
       sodipodi:cx="278.57144"
       sodipodi:cy="629.50507"
       sodipodi:rx="7.1428571"
       sodipodi:ry="7.1428571"
       d="m 285.7143,629.50507 c 0,3.94489 -3.19797,7.14285 -7.14286,7.14285 -3.94489,0 -7.14286,-3.19796 -7.14286,-7.14285 0,-3.9449 3.19797,-7.14286 7.14286,-7.14286 3.94489,0 7.14286,3.19796 7.14286,7.14286 z"
       transform="translate(202,-368.85715)" />
    <path
       transform="translate(307.71429,-370.28572)"
       d="m 285.7143,629.50507 c 0,3.94489 -3.19797,7.14285 -7.14286,7.14285 -3.94489,0 -7.14286,-3.19796 -7.14286,-7.14285 0,-3.9449 3.19797,-7.14286 7.14286,-7.14286 3.94489,0 7.14286,3.19796 7.14286,7.14286 z"
       sodipodi:ry="7.1428571"
       sodipodi:rx="7.1428571"
       sodipodi:cy="629.50507"
       sodipodi:cx="278.57144"
       id="path4091"
       style="fill:#000000;fill-opacity:1;stroke:#000000;stroke-width:4.30299997;stroke-miterlimit:4;stroke-opacity:1;stroke-dasharray:none;stroke-dashoffset:0"
       sodipodi:type="arc" />
    <path
       sodipodi:type="arc"
       style="fill:#000000;fill-opacity:1;stroke:#000000;stroke-width:4.30299997;stroke-miterlimit:4;stroke-opacity:1;stroke-dasharray:none;stroke-dashoffset:0"
       id="path4093"
       sodipodi:cx="278.57144"
       sodipodi:cy="629.50507"
       sodipodi:rx="7.1428571"
       sodipodi:ry="7.1428571"
       d="m 285.7143,629.50507 c 0,3.94489 -3.19797,7.14285 -7.14286,7.14285 -3.94489,0 -7.14286,-3.19796 -7.14286,-7.14285 0,-3.9449 3.19797,-7.14286 7.14286,-7.14286 3.94489,0 7.14286,3.19796 7.14286,7.14286 z"
       transform="translate(-116.57143,-373.14286)" />
    <path
       sodipodi:type="arc"
       style="fill:#000000;fill-opacity:1;stroke:#000000;stroke-width:4.30299997;stroke-miterlimit:4;stroke-opacity:1;stroke-dasharray:none;stroke-dashoffset:0"
       id="path4095"
       sodipodi:cx="278.57144"
       sodipodi:cy="629.50507"
       sodipodi:rx="7.1428571"
       sodipodi:ry="7.1428571"
       d="m 285.7143,629.50507 c 0,3.94489 -3.19797,7.14285 -7.14286,7.14285 -3.94489,0 -7.14286,-3.19796 -7.14286,-7.14285 0,-3.9449 3.19797,-7.14286 7.14286,-7.14286 3.94489,0 7.14286,3.19796 7.14286,7.14286 z"
       transform="translate(-116.57143,-463.14286)" />
    <path
       sodipodi:type="arc"
       style="fill:#000000;fill-opacity:1;stroke:#000000;stroke-width:4.30299997;stroke-miterlimit:4;stroke-opacity:1;stroke-dasharray:none;stroke-dashoffset:0"
       id="path4097"
       sodipodi:cx="278.57144"
       sodipodi:cy="629.50507"
       sodipodi:rx="7.1428571"
       sodipodi:ry="7.1428571"
       d="m 285.7143,629.50507 c 0,3.94489 -3.19797,7.14285 -7.14286,7.14285 -3.94489,0 -7.14286,-3.19796 -7.14286,-7.14285 0,-3.9449 3.19797,-7.14286 7.14286,-7.14286 3.94489,0 7.14286,3.19796 7.14286,7.14286 z"
       transform="translate(-12.285715,-557.42858)" />
    <path
       sodipodi:type="arc"
       style="fill:#000000;fill-opacity:1;stroke:#000000;stroke-width:4.30299997;stroke-miterlimit:4;stroke-opacity:1;stroke-dasharray:none;stroke-dashoffset:0"
       id="path4099"
       sodipodi:cx="278.57144"
       sodipodi:cy="629.50507"
       sodipodi:rx="7.1428571"
       sodipodi:ry="7.1428571"
       d="m 285.7143,629.50507 c 0,3.94489 -3.19797,7.14285 -7.14286,7.14285 -3.94489,0 -7.14286,-3.19796 -7.14286,-7.14285 0,-3.9449 3.19797,-7.14286 7.14286,-7.14286 3.94489,0 7.14286,3.19796 7.14286,7.14286 z"
       transform="translate(94.85714,-557.42858)" />
    <path
       sodipodi:type="arc"
       style="fill:#000000;fill-opacity:1;stroke:#000000;stroke-width:4.30299997;stroke-miterlimit:4;stroke-opacity:1;stroke-dasharray:none;stroke-dashoffset:0"
       id="path4101"
       sodipodi:cx="278.57144"
       sodipodi:cy="629.50507"
       sodipodi:rx="7.1428571"
       sodipodi:ry="7.1428571"
       d="m 285.7143,629.50507 c 0,3.94489 -3.19797,7.14285 -7.14286,7.14285 -3.94489,0 -7.14286,-3.19796 -7.14286,-7.14285 0,-3.9449 3.19797,-7.14286 7.14286,-7.14286 3.94489,0 7.14286,3.19796 7.14286,7.14286 z"
       transform="translate(200.57143,-464.00001)" />
    <path
       transform="translate(200.57143,-556.00001)"
       d="m 285.7143,629.50507 c 0,3.94489 -3.19797,7.14285 -7.14286,7.14285 -3.94489,0 -7.14286,-3.19796 -7.14286,-7.14285 0,-3.9449 3.19797,-7.14286 7.14286,-7.14286 3.94489,0 7.14286,3.19796 7.14286,7.14286 z"
       sodipodi:ry="7.1428571"
       sodipodi:rx="7.1428571"
       sodipodi:cy="629.50507"
       sodipodi:cx="278.57144"
       id="path4103"
       style="fill:#000000;fill-opacity:1;stroke:#000000;stroke-width:4.30299997;stroke-miterlimit:4;stroke-opacity:1;stroke-dasharray:none;stroke-dashoffset:0"
       sodipodi:type="arc" />
    <text
       xml:space="preserve"
       style="font-size:34.48974609px;font-style:normal;font-weight:normal;line-height:125%;letter-spacing:0px;word-spacing:0px;fill:#000000;fill-opacity:1;stroke:none;font-family:Bitstream Vera Sans"
       x="105.37514"
       y="276.49182"
       id="text4105"
       sodipodi:linespacing="125%"
       transform="scale(1.0317333,0.96924272)"><tspan
         sodipodi:role="line"
         id="tspan4107"
         x="105.37514"
         y="276.49182">B</tspan></text>
    <text
       sodipodi:linespacing="125%"
       id="text4109"
       y="181.39709"
       x="107.80637"
       style="font-size:34.48974609px;font-style:normal;font-weight:normal;line-height:125%;letter-spacing:0px;word-spacing:0px;fill:#000000;fill-opacity:1;stroke:none;font-family:Bitstream Vera Sans"
       xml:space="preserve"
       transform="scale(1.0317333,0.96924272)"><tspan
         y="181.39709"
         x="107.80637"
         id="tspan4111"
         sodipodi:role="line">B</tspan></text>
    <text
       xml:space="preserve"
       style="font-size:34.48974609px;font-style:normal;font-weight:normal;line-height:125%;letter-spacing:0px;word-spacing:0px;fill:#000000;fill-opacity:1;stroke:none;font-family:Bitstream Vera Sans"
       x="584.73224"
       y="276.73819"
       id="text4121"
       sodipodi:linespacing="125%"
       transform="scale(1.0317333,0.96924272)"><tspan
         sodipodi:role="line"
         id="tspan4123"
         x="584.73224"
         y="276.73819">B</tspan></text>
    <text
       sodipodi:linespacing="125%"
       id="text4125"
       y="185.95561"
       x="581.98999"
       style="font-size:34.48974609px;font-style:normal;font-weight:normal;line-height:125%;letter-spacing:0px;word-spacing:0px;fill:#000000;fill-opacity:1;stroke:none;font-family:Bitstream Vera Sans"
       xml:space="preserve"
       transform="scale(1.0317333,0.96924272)"><tspan
         y="185.95561"
         x="581.98999"
         id="tspan4127"
         sodipodi:role="line">B</tspan></text>
    <text
       xml:space="preserve"
       style="font-size:34.48974609px;font-style:normal;font-weight:normal;line-height:125%;letter-spacing:0px;word-spacing:0px;fill:#000000;fill-opacity:1;stroke:none;font-family:Bitstream Vera Sans"
       x="586.57361"
       y="88.582108"
       id="text4129"
       sodipodi:linespacing="125%"
       transform="scale(1.0317333,0.96924272)"><tspan
         sodipodi:role="line"
         id="tspan4131"
         x="586.57361"
         y="88.582108">B</tspan></text>
    <rect
       y="355.21933"
       x="-372.99878"
       height="92.857147"
       width="105.71429"
       id="rect4133"
       style="fill:none;stroke:#000000;stroke-opacity:1"
       transform="scale(-1,1)" />
    <rect
       transform="scale(-1,-1)"
       style="fill:none;stroke:#000000;stroke-opacity:1"
       id="rect4137"
       width="105.71429"
       height="92.857147"
       x="-266.99878"
       y="-448.07648" />
    <rect
       transform="scale(-1,1)"
       style="fill:none;stroke:#000000;stroke-opacity:1"
       id="rect4141"
       width="105.71429"
       height="92.857147"
       x="-584.99878"
       y="355.21933" />
    <rect
       y="-448.07648"
       x="-478.99878"
       height="92.857147"
       width="105.71429"
       id="rect4145"
       style="fill:none;stroke:#000000;stroke-opacity:1"
       transform="scale(-1,-1)" />
    <rect
       transform="scale(-1,-1)"
       style="fill:none;stroke:#000000;stroke-opacity:1"
       id="rect4149"
       width="105.71429"
       height="92.857147"
       x="-372.99878"
       y="-540.07648" />
    <rect
       y="447.21936"
       x="-266.99878"
       height="92.857147"
       width="105.71429"
       id="rect4153"
       style="fill:none;stroke:#000000;stroke-opacity:1"
       transform="scale(-1,1)" />
    <rect
       y="-540.07648"
       x="-584.99878"
       height="92.857147"
       width="105.71429"
       id="rect4157"
       style="fill:none;stroke:#000000;stroke-opacity:1"
       transform="scale(-1,-1)" />
    <rect
       transform="scale(-1,1)"
       style="fill:none;stroke:#000000;stroke-opacity:1"
       id="rect4161"
       width="105.71429"
       height="92.857147"
       x="-478.99878"
       y="447.21936" />
    <text
       sodipodi:linespacing="125%"
       id="text4165"
       y="456.81528"
       x="331.92877"
       style="font-size:34.48974609px;font-style:normal;font-weight:normal;line-height:125%;letter-spacing:0px;word-spacing:0px;fill:#000000;fill-opacity:1;stroke:none;font-family:Bitstream Vera Sans"
       xml:space="preserve"
       transform="scale(1.0317333,0.96924272)"><tspan
         y="456.81528"
         x="331.92877"
         id="tspan4167"
         sodipodi:role="line">A</tspan></text>
    <text
       xml:space="preserve"
       style="font-size:34.48974609px;font-style:normal;font-weight:normal;line-height:125%;letter-spacing:0px;word-spacing:0px;fill:#000000;fill-opacity:1;stroke:none;font-family:Bitstream Vera Sans"
       x="108.79179"
       y="377.53104"
       id="text4169"
       sodipodi:linespacing="125%"
       transform="scale(1.0317333,0.96924272)"><tspan
         sodipodi:role="line"
         id="tspan4171"
         x="108.79179"
         y="377.53104">B</tspan></text>
    <path
       transform="translate(94.85714,-181.14286)"
       d="m 285.7143,629.50507 c 0,3.94489 -3.19797,7.14285 -7.14286,7.14285 -3.94489,0 -7.14286,-3.19796 -7.14286,-7.14285 0,-3.9449 3.19797,-7.14286 7.14286,-7.14286 3.94489,0 7.14286,3.19796 7.14286,7.14286 z"
       sodipodi:ry="7.1428571"
       sodipodi:rx="7.1428571"
       sodipodi:cy="629.50507"
       sodipodi:cx="278.57144"
       id="path4173"
       style="fill:#000000;fill-opacity:1;stroke:#000000;stroke-width:4.30299997;stroke-miterlimit:4;stroke-opacity:1;stroke-dasharray:none;stroke-dashoffset:0"
       sodipodi:type="arc" />
    <path
       sodipodi:type="arc"
       style="fill:#000000;fill-opacity:1;stroke:#000000;stroke-width:4.30299997;stroke-miterlimit:4;stroke-opacity:1;stroke-dasharray:none;stroke-dashoffset:0"
       id="path4175"
       sodipodi:cx="278.57144"
       sodipodi:cy="629.50507"
       sodipodi:rx="7.1428571"
       sodipodi:ry="7.1428571"
       d="m 285.7143,629.50507 c 0,3.94489 -3.19797,7.14285 -7.14286,7.14285 -3.94489,0 -7.14286,-3.19796 -7.14286,-7.14285 0,-3.9449 3.19797,-7.14286 7.14286,-7.14286 3.94489,0 7.14286,3.19796 7.14286,7.14286 z"
       transform="translate(-12.285715,-88.28572)" />
    <path
       transform="translate(-118,-272.57143)"
       d="m 285.7143,629.50507 c 0,3.94489 -3.19797,7.14285 -7.14286,7.14285 -3.94489,0 -7.14286,-3.19796 -7.14286,-7.14285 0,-3.9449 3.19797,-7.14286 7.14286,-7.14286 3.94489,0 7.14286,3.19796 7.14286,7.14286 z"
       sodipodi:ry="7.1428571"
       sodipodi:rx="7.1428571"
       sodipodi:cy="629.50507"
       sodipodi:cx="278.57144"
       id="path4177"
       style="fill:#000000;fill-opacity:1;stroke:#000000;stroke-width:4.30299997;stroke-miterlimit:4;stroke-opacity:1;stroke-dasharray:none;stroke-dashoffset:0"
       sodipodi:type="arc" />
    <path
       sodipodi:type="arc"
       style="fill:#000000;fill-opacity:1;stroke:#000000;stroke-width:4.30299997;stroke-miterlimit:4;stroke-opacity:1;stroke-dasharray:none;stroke-dashoffset:0"
       id="path4179"
       sodipodi:cx="278.57144"
       sodipodi:cy="629.50507"
       sodipodi:rx="7.1428571"
       sodipodi:ry="7.1428571"
       d="m 285.7143,629.50507 c 0,3.94489 -3.19797,7.14285 -7.14286,7.14285 -3.94489,0 -7.14286,-3.19796 -7.14286,-7.14285 0,-3.9449 3.19797,-7.14286 7.14286,-7.14286 3.94489,0 7.14286,3.19796 7.14286,7.14286 z"
       transform="translate(96.28571,-88.28572)" />
    <path
       transform="translate(-10.857142,-182.57143)"
       d="m 285.7143,629.50507 c 0,3.94489 -3.19797,7.14285 -7.14286,7.14285 -3.94489,0 -7.14286,-3.19796 -7.14286,-7.14285 0,-3.9449 3.19797,-7.14286 7.14286,-7.14286 3.94489,0 7.14286,3.19796 7.14286,7.14286 z"
       sodipodi:ry="7.1428571"
       sodipodi:rx="7.1428571"
       sodipodi:cy="629.50507"
       sodipodi:cx="278.57144"
       id="path4181"
       style="fill:#000000;fill-opacity:1;stroke:#000000;stroke-width:4.30299997;stroke-miterlimit:4;stroke-opacity:1;stroke-dasharray:none;stroke-dashoffset:0"
       sodipodi:type="arc" />
    <path
       sodipodi:type="arc"
       style="fill:#000000;fill-opacity:1;stroke:#000000;stroke-width:4.30299997;stroke-miterlimit:4;stroke-opacity:1;stroke-dasharray:none;stroke-dashoffset:0"
       id="path4183"
       sodipodi:cx="278.57144"
       sodipodi:cy="629.50507"
       sodipodi:rx="7.1428571"
       sodipodi:ry="7.1428571"
       d="m 285.7143,629.50507 c 0,3.94489 -3.19797,7.14285 -7.14286,7.14285 -3.94489,0 -7.14286,-3.19796 -7.14286,-7.14285 0,-3.9449 3.19797,-7.14286 7.14286,-7.14286 3.94489,0 7.14286,3.19796 7.14286,7.14286 z"
       transform="translate(306.28572,-272.57143)" />
    <path
       transform="translate(304.85715,-181.14286)"
       d="m 285.7143,629.50507 c 0,3.94489 -3.19797,7.14285 -7.14286,7.14285 -3.94489,0 -7.14286,-3.19796 -7.14286,-7.14285 0,-3.9449 3.19797,-7.14286 7.14286,-7.14286 3.94489,0 7.14286,3.19796 7.14286,7.14286 z"
       sodipodi:ry="7.1428571"
       sodipodi:rx="7.1428571"
       sodipodi:cy="629.50507"
       sodipodi:cx="278.57144"
       id="path4185"
       style="fill:#000000;fill-opacity:1;stroke:#000000;stroke-width:4.30299997;stroke-miterlimit:4;stroke-opacity:1;stroke-dasharray:none;stroke-dashoffset:0"
       sodipodi:type="arc" />
    <path
       transform="translate(202,-86.85715)"
       d="m 285.7143,629.50507 c 0,3.94489 -3.19797,7.14285 -7.14286,7.14285 -3.94489,0 -7.14286,-3.19796 -7.14286,-7.14285 0,-3.9449 3.19797,-7.14286 7.14286,-7.14286 3.94489,0 7.14286,3.19796 7.14286,7.14286 z"
       sodipodi:ry="7.1428571"
       sodipodi:rx="7.1428571"
       sodipodi:cy="629.50507"
       sodipodi:cx="278.57144"
       id="path4187"
       style="fill:#000000;fill-opacity:1;stroke:#000000;stroke-width:4.30299997;stroke-miterlimit:4;stroke-opacity:1;stroke-dasharray:none;stroke-dashoffset:0"
       sodipodi:type="arc" />
    <path
       sodipodi:type="arc"
       style="fill:#000000;fill-opacity:1;stroke:#000000;stroke-width:4.30299997;stroke-miterlimit:4;stroke-opacity:1;stroke-dasharray:none;stroke-dashoffset:0"
       id="path4189"
       sodipodi:cx="278.57144"
       sodipodi:cy="629.50507"
       sodipodi:rx="7.1428571"
       sodipodi:ry="7.1428571"
       d="m 285.7143,629.50507 c 0,3.94489 -3.19797,7.14285 -7.14286,7.14285 -3.94489,0 -7.14286,-3.19796 -7.14286,-7.14285 0,-3.9449 3.19797,-7.14286 7.14286,-7.14286 3.94489,0 7.14286,3.19796 7.14286,7.14286 z"
       transform="translate(307.71429,-88.28572)" />
    <path
       transform="translate(-116.57143,-91.14286)"
       d="m 285.7143,629.50507 c 0,3.94489 -3.19797,7.14285 -7.14286,7.14285 -3.94489,0 -7.14286,-3.19796 -7.14286,-7.14285 0,-3.9449 3.19797,-7.14286 7.14286,-7.14286 3.94489,0 7.14286,3.19796 7.14286,7.14286 z"
       sodipodi:ry="7.1428571"
       sodipodi:rx="7.1428571"
       sodipodi:cy="629.50507"
       sodipodi:cx="278.57144"
       id="path4191"
       style="fill:#000000;fill-opacity:1;stroke:#000000;stroke-width:4.30299997;stroke-miterlimit:4;stroke-opacity:1;stroke-dasharray:none;stroke-dashoffset:0"
       sodipodi:type="arc" />
    <path
       transform="translate(-116.57143,-181.14286)"
       d="m 285.7143,629.50507 c 0,3.94489 -3.19797,7.14285 -7.14286,7.14285 -3.94489,0 -7.14286,-3.19796 -7.14286,-7.14285 0,-3.9449 3.19797,-7.14286 7.14286,-7.14286 3.94489,0 7.14286,3.19796 7.14286,7.14286 z"
       sodipodi:ry="7.1428571"
       sodipodi:rx="7.1428571"
       sodipodi:cy="629.50507"
       sodipodi:cx="278.57144"
       id="path4193"
       style="fill:#000000;fill-opacity:1;stroke:#000000;stroke-width:4.30299997;stroke-miterlimit:4;stroke-opacity:1;stroke-dasharray:none;stroke-dashoffset:0"
       sodipodi:type="arc" />
    <path
       transform="translate(-12.285715,-275.42858)"
       d="m 285.7143,629.50507 c 0,3.94489 -3.19797,7.14285 -7.14286,7.14285 -3.94489,0 -7.14286,-3.19796 -7.14286,-7.14285 0,-3.9449 3.19797,-7.14286 7.14286,-7.14286 3.94489,0 7.14286,3.19796 7.14286,7.14286 z"
       sodipodi:ry="7.1428571"
       sodipodi:rx="7.1428571"
       sodipodi:cy="629.50507"
       sodipodi:cx="278.57144"
       id="path4195"
       style="fill:#000000;fill-opacity:1;stroke:#000000;stroke-width:4.30299997;stroke-miterlimit:4;stroke-opacity:1;stroke-dasharray:none;stroke-dashoffset:0"
       sodipodi:type="arc" />
    <path
       transform="translate(94.85714,-275.42858)"
       d="m 285.7143,629.50507 c 0,3.94489 -3.19797,7.14285 -7.14286,7.14285 -3.94489,0 -7.14286,-3.19796 -7.14286,-7.14285 0,-3.9449 3.19797,-7.14286 7.14286,-7.14286 3.94489,0 7.14286,3.19796 7.14286,7.14286 z"
       sodipodi:ry="7.1428571"
       sodipodi:rx="7.1428571"
       sodipodi:cy="629.50507"
       sodipodi:cx="278.57144"
       id="path4197"
       style="fill:#000000;fill-opacity:1;stroke:#000000;stroke-width:4.30299997;stroke-miterlimit:4;stroke-opacity:1;stroke-dasharray:none;stroke-dashoffset:0"
       sodipodi:type="arc" />
    <path
       transform="translate(200.57143,-182.00001)"
       d="m 285.7143,629.50507 c 0,3.94489 -3.19797,7.14285 -7.14286,7.14285 -3.94489,0 -7.14286,-3.19796 -7.14286,-7.14285 0,-3.9449 3.19797,-7.14286 7.14286,-7.14286 3.94489,0 7.14286,3.19796 7.14286,7.14286 z"
       sodipodi:ry="7.1428571"
       sodipodi:rx="7.1428571"
       sodipodi:cy="629.50507"
       sodipodi:cx="278.57144"
       id="path4199"
       style="fill:#000000;fill-opacity:1;stroke:#000000;stroke-width:4.30299997;stroke-miterlimit:4;stroke-opacity:1;stroke-dasharray:none;stroke-dashoffset:0"
       sodipodi:type="arc" />
    <path
       sodipodi:type="arc"
       style="fill:#000000;fill-opacity:1;stroke:#000000;stroke-width:4.30299997;stroke-miterlimit:4;stroke-opacity:1;stroke-dasharray:none;stroke-dashoffset:0"
       id="path4201"
       sodipodi:cx="278.57144"
       sodipodi:cy="629.50507"
       sodipodi:rx="7.1428571"
       sodipodi:ry="7.1428571"
       d="m 285.7143,629.50507 c 0,3.94489 -3.19797,7.14285 -7.14286,7.14285 -3.94489,0 -7.14286,-3.19796 -7.14286,-7.14285 0,-3.9449 3.19797,-7.14286 7.14286,-7.14286 3.94489,0 7.14286,3.19796 7.14286,7.14286 z"
       transform="translate(200.57143,-274.00001)" />
    <text
       sodipodi:linespacing="125%"
       id="text4203"
       y="565.04102"
       x="109.25211"
       style="font-size:34.48974609px;font-style:normal;font-weight:normal;line-height:125%;letter-spacing:0px;word-spacing:0px;fill:#000000;fill-opacity:1;stroke:none;font-family:Bitstream Vera Sans"
       xml:space="preserve"
       transform="scale(1.0317333,0.96924272)"><tspan
         y="565.04102"
         x="109.25211"
         id="tspan4205"
         sodipodi:role="line">B</tspan></text>
    <text
       xml:space="preserve"
       style="font-size:34.48974609px;font-style:normal;font-weight:normal;line-height:125%;letter-spacing:0px;word-spacing:0px;fill:#000000;fill-opacity:1;stroke:none;font-family:Bitstream Vera Sans"
       x="109.74486"
       y="474.07281"
       id="text4207"
       sodipodi:linespacing="125%"
       transform="scale(1.0317333,0.96924272)"><tspan
         sodipodi:role="line"
         id="tspan4209"
         x="109.74486"
         y="474.07281">B</tspan></text>
    <text
       sodipodi:linespacing="125%"
       id="text4211"
       y="566.17175"
       x="582.79413"
       style="font-size:34.48974609px;font-style:normal;font-weight:normal;line-height:125%;letter-spacing:0px;word-spacing:0px;fill:#000000;fill-opacity:1;stroke:none;font-family:Bitstream Vera Sans"
       xml:space="preserve"
       transform="scale(1.0317333,0.96924272)"><tspan
         y="566.17175"
         x="582.79413"
         id="tspan4213"
         sodipodi:role="line">B</tspan></text>
    <text
       xml:space="preserve"
       style="font-size:34.48974609px;font-style:normal;font-weight:normal;line-height:125%;letter-spacing:0px;word-spacing:0px;fill:#000000;fill-opacity:1;stroke:none;font-family:Bitstream Vera Sans"
       x="585.03656"
       y="471.85138"
       id="text4215"
       sodipodi:linespacing="125%"
       transform="scale(1.0317333,0.96924272)"><tspan
         sodipodi:role="line"
         id="tspan4217"
         x="585.03656"
         y="471.85138">B</tspan></text>
    <text
       sodipodi:linespacing="125%"
       id="text4219"
       y="370.64587"
       x="583.80475"
       style="font-size:34.48974609px;font-style:normal;font-weight:normal;line-height:125%;letter-spacing:0px;word-spacing:0px;fill:#000000;fill-opacity:1;stroke:none;font-family:Bitstream Vera Sans"
       xml:space="preserve"
       transform="scale(1.0317333,0.96924272)"><tspan
         y="370.64587"
         x="583.80475"
         id="tspan4221"
         sodipodi:role="line">B</tspan></text>
    <path
       style="fill:none;stroke:#000000;stroke-width:1px;stroke-linecap:butt;stroke-linejoin:miter;stroke-opacity:1"
       d="M 264.9988,444.6479 C 152.7738,351.39253 159.01129,354.51128 159.28452,354.64789 l 0,0 0,0"
       id="path4223"
       inkscape:connector-curvature="0"
       sodipodi:nodetypes="cccc" />
    <path
       style="fill:none;stroke:#000000;stroke-width:1px;stroke-linecap:butt;stroke-linejoin:miter;stroke-opacity:1"
       d="m 372.9988,356.60864 c -112.225,93.25537 -105.98751,90.13662 -105.71428,90.00001 l 0,0 0,0"
       id="path4225"
       inkscape:connector-curvature="0"
       sodipodi:nodetypes="cccc" />
    <path
       sodipodi:nodetypes="cccc"
       inkscape:connector-curvature="0"
       id="path4227"
       d="M 476.9988,444.6479 C 364.7738,351.39253 371.01129,354.51128 371.28452,354.64789 l 0,0 0,0"
       style="fill:none;stroke:#000000;stroke-width:1px;stroke-linecap:butt;stroke-linejoin:miter;stroke-opacity:1" />
    <path
       sodipodi:nodetypes="cccc"
       inkscape:connector-curvature="0"
       id="path4229"
       d="m 584.9988,356.60864 c -112.225,93.25537 -105.98751,90.13662 -105.71428,90.00001 l 0,0 0,0"
       style="fill:none;stroke:#000000;stroke-width:1px;stroke-linecap:butt;stroke-linejoin:miter;stroke-opacity:1" />
    <path
       sodipodi:nodetypes="cccc"
       inkscape:connector-curvature="0"
       id="path4231"
       d="m 264.9988,448.60864 c -112.225,93.25537 -105.98751,90.13662 -105.71428,90.00001 l 0,0 0,0"
       style="fill:none;stroke:#000000;stroke-width:1px;stroke-linecap:butt;stroke-linejoin:miter;stroke-opacity:1" />
    <path
       sodipodi:nodetypes="cccc"
       inkscape:connector-curvature="0"
       id="path4233"
       d="M 372.9988,536.6479 C 260.7738,443.39253 267.01129,446.51128 267.28452,446.64789 l 0,0 0,0"
       style="fill:none;stroke:#000000;stroke-width:1px;stroke-linecap:butt;stroke-linejoin:miter;stroke-opacity:1" />
    <path
       style="fill:none;stroke:#000000;stroke-width:1px;stroke-linecap:butt;stroke-linejoin:miter;stroke-opacity:1"
       d="m 476.9988,448.60864 c -112.225,93.25537 -105.98751,90.13662 -105.71428,90.00001 l 0,0 0,0"
       id="path4235"
       inkscape:connector-curvature="0"
       sodipodi:nodetypes="cccc" />
    <path
       style="fill:none;stroke:#000000;stroke-width:1px;stroke-linecap:butt;stroke-linejoin:miter;stroke-opacity:1"
       d="M 584.9988,536.6479 C 472.7738,443.39253 479.01129,446.51128 479.28452,446.64789 l 0,0 0,0"
       id="path4237"
       inkscape:connector-curvature="0"
       sodipodi:nodetypes="cccc" />
    <text
       xml:space="preserve"
       style="font-size:34.48974609px;font-style:normal;font-weight:normal;line-height:125%;letter-spacing:0px;word-spacing:0px;fill:#000000;fill-opacity:1;stroke:none;font-family:Bitstream Vera Sans"
       x="453.37271"
       y="351.97116"
       id="text4239"
       sodipodi:linespacing="125%"
       transform="scale(1.0317333,0.96924272)"><tspan
         sodipodi:role="line"
         id="tspan4241"
         x="453.37271"
         y="351.97116">B</tspan></text>
    <text
       sodipodi:linespacing="125%"
       id="text4243"
       y="602.61115"
       x="457.52692"
       style="font-size:34.48974609px;font-style:normal;font-weight:normal;line-height:125%;letter-spacing:0px;word-spacing:0px;fill:#000000;fill-opacity:1;stroke:none;font-family:Bitstream Vera Sans"
       xml:space="preserve"
       transform="scale(1.0317333,0.96924272)"><tspan
         y="602.61115"
         x="457.52692"
         id="tspan4245"
         sodipodi:role="line">B</tspan></text>
    <text
       sodipodi:linespacing="125%"
       id="text4266"
       y="351.97116"
       x="245.5912"
       style="font-size:34.48974609px;font-style:normal;font-weight:normal;line-height:125%;letter-spacing:0px;word-spacing:0px;fill:#000000;fill-opacity:1;stroke:none;font-family:Bitstream Vera Sans"
       xml:space="preserve"
       transform="scale(1.0317333,0.96924272)"><tspan
         y="351.97116"
         x="245.5912"
         id="tspan4268"
         sodipodi:role="line">B</tspan></text>
    <text
       xml:space="preserve"
       style="font-size:34.48974609px;font-style:normal;font-weight:normal;line-height:125%;letter-spacing:0px;word-spacing:0px;fill:#000000;fill-opacity:1;stroke:none;font-family:Bitstream Vera Sans"
       x="250.85266"
       y="598.18945"
       id="text4270"
       sodipodi:linespacing="125%"
       transform="scale(1.0317333,0.96924272)"><tspan
         sodipodi:role="line"
         id="tspan4272"
         x="250.85266"
         y="598.18945">B</tspan></text>
  </g>
</svg>
