<?xml version="1.0" encoding="UTF-8" standalone="no"?>
<!-- Created with Inkscape (http://www.inkscape.org/) -->

<svg
   xmlns:dc="http://purl.org/dc/elements/1.1/"
   xmlns:cc="http://creativecommons.org/ns#"
   xmlns:rdf="http://www.w3.org/1999/02/22-rdf-syntax-ns#"
   xmlns:svg="http://www.w3.org/2000/svg"
   xmlns="http://www.w3.org/2000/svg"
   xmlns:sodipodi="http://sodipodi.sourceforge.net/DTD/sodipodi-0.dtd"
   xmlns:inkscape="http://www.inkscape.org/namespaces/inkscape"
   inkscape:version="0.47pre4 r22446"
   version="1.1"
   id="svg2"
   height="1052.3622047"
   width="744.09448819"
   sodipodi:docname="New document 1">
  <sodipodi:namedview
     id="base"
     pagecolor="#ffffff"
     bordercolor="#666666"
     borderopacity="1.0"
     inkscape:pageopacity="0.0"
     inkscape:pageshadow="2"
     inkscape:zoom="0.49497475"
     inkscape:cx="375"
     inkscape:cy="630.36246"
     inkscape:document-units="px"
     inkscape:current-layer="svg2"
     showgrid="false"
     inkscape:window-width="1366"
     inkscape:window-height="694"
     inkscape:window-x="0"
     inkscape:window-y="25"
     inkscape:window-maximized="1" />
  <defs
     id="defs4">
    <inkscape:perspective
       id="perspective10"
       inkscape:persp3d-origin="372.04724 : 350.78739 : 1"
       inkscape:vp_z="744.09448 : 526.18109 : 1"
       inkscape:vp_y="0 : 1000 : 0"
       inkscape:vp_x="0 : 526.18109 : 1"
       sodipodi:type="inkscape:persp3d" />
  </defs>
  <metadata
     id="metadata7">
    <rdf:RDF>
      <cc:Work
         rdf:about="">
        <dc:format>image/svg+xml</dc:format>
        <dc:type
           rdf:resource="http://purl.org/dc/dcmitype/StillImage" />
        <dc:title></dc:title>
      </cc:Work>
    </rdf:RDF>
  </metadata>
  <g
     id="layer1"
     inkscape:groupmode="layer"
     inkscape:label="Layer 1" />
  <path
     id="path2832"
     d="m 300.00936,159.76473 -3.54571,199.96857 -80.36486,110.69493 -74.99309,39.40417 -65.833037,6.60372 -48.644697,-22.99211 48.644697,22.99211 65.833037,-6.60372 -28.96907,45.27964 28.96907,-45.27964 74.99309,-39.40417 -9.33786,68.17852 9.33786,-68.17852 80.36486,-110.69493 84.61136,122.49248 13.67711,75.10695 -11.74924,62.69721 11.74924,-62.69721 -13.67711,-75.10695 111.59735,62.68124 47.38052,87.27762 -11.93921,86.00506 -31.71178,39.398 31.71178,-39.398 11.93921,-86.00506 47.092,27.87853 16.56512,45.6005 -16.56512,-45.6005 -47.092,-27.87853 -47.38052,-87.27762 98.95734,2.38709 51.10388,41.97435 24.50606,53.87797 -24.50606,-53.87797 -51.10388,-41.97435 78.53468,-38.94762 52.08311,8.699 -52.08311,-8.699 36.2357,-41.08061 -36.2357,41.08061 -78.53468,38.94762 -98.95734,-2.38709 -111.59735,-62.68124 -84.61136,-122.49248 3.54571,-199.96857"
     style="fill:none;stroke:#000000;stroke-width:1px;stroke-linecap:butt;stroke-linejoin:miter;stroke-opacity:1" />
</svg>
