<?xml version="1.0" encoding="UTF-8" standalone="no"?>
<!-- Created with Inkscape (http://www.inkscape.org/) -->

<svg
   xmlns:dc="http://purl.org/dc/elements/1.1/"
   xmlns:cc="http://creativecommons.org/ns#"
   xmlns:rdf="http://www.w3.org/1999/02/22-rdf-syntax-ns#"
   xmlns:svg="http://www.w3.org/2000/svg"
   xmlns="http://www.w3.org/2000/svg"
   xmlns:sodipodi="http://sodipodi.sourceforge.net/DTD/sodipodi-0.dtd"
   xmlns:inkscape="http://www.inkscape.org/namespaces/inkscape"
   width="744.09448819"
   height="1052.3622047"
   id="svg2"
   version="1.1"
   inkscape:version="0.47pre4 r22446"
   sodipodi:docname="New document 1">
  <sodipodi:namedview
     id="base"
     pagecolor="#ffffff"
     bordercolor="#666666"
     borderopacity="1.0"
     inkscape:pageopacity="0.0"
     inkscape:pageshadow="2"
     inkscape:zoom="0.35"
     inkscape:cx="375"
     inkscape:cy="520"
     inkscape:document-units="px"
     inkscape:current-layer="layer1"
     showgrid="false"
     inkscape:window-width="709"
     inkscape:window-height="685"
     inkscape:window-x="1564"
     inkscape:window-y="76"
     inkscape:window-maximized="0" />
  <defs
     id="defs4">
    <inkscape:perspective
       id="perspective10"
       inkscape:persp3d-origin="372.04724 : 350.78739 : 1"
       inkscape:vp_z="744.09448 : 526.18109 : 1"
       inkscape:vp_y="0 : 1000 : 0"
       inkscape:vp_x="0 : 526.18109 : 1"
       sodipodi:type="inkscape:persp3d" />
  </defs>
  <metadata
     id="metadata7">
    <rdf:RDF>
      <cc:Work
         rdf:about="">
        <dc:format>image/svg+xml</dc:format>
        <dc:type
           rdf:resource="http://purl.org/dc/dcmitype/StillImage" />
        <dc:title></dc:title>
      </cc:Work>
    </rdf:RDF>
  </metadata>
  <g
     id="layer1"
     inkscape:groupmode="layer"
     inkscape:label="Layer 1">
    <g
       id="g2844">
      <g
         text-anchor="start"
         word-spacing="normal"
         letter-spacing="normal"
         font-size-adjust="none"
         font-stretch="normal"
         font-weight="normal"
         font-variant="normal"
         font-style="normal"
         fill-opacity="1"
         fill-rule="even-odd"
         fill="none"
         stroke-opacity="1"
         stroke-dashoffset="0"
         stroke-dasharray="none"
         stroke-miterlimit="10.433"
         stroke-linejoin="miter"
         stroke-linecap="butt"
         stroke="black"
         xml:space="preserve"
         transform="matrix(1.06299212599,0,0,-1.06299212599,-186.023622047,789.271653525)"
         id="content"><path
           id="path2847"
           fill="black"
           stroke-width="0"
           d="M501.33,417.46 L501.47,417.46 L501.61,417.46 L501.76,417.46 L501.83,417.47 L501.9,417.47 L501.97,417.48 L502.04,417.49 L502.11,417.5 L502.18,417.51 L502.24,417.52 L502.31,417.54 L502.37,417.56 L502.43,417.58 L502.49,417.61 L502.55,417.63 L502.6,417.67 L502.65,417.7 L502.7,417.74 L502.74,417.78 L502.78,417.83 L502.82,417.88 L502.84,417.9 L502.86,417.93 L502.87,417.96 L502.89,417.99 L502.9,418.02 L502.91,418.06 L502.92,418.09 L502.93,418.12 L502.94,418.16 L502.95,418.2 L502.96,418.24 L502.96,418.28 L502.97,418.32 L502.97,418.36 L502.97,418.41 L502.97,418.45 C502.97,419.45,502.08,419.45,501.33,419.45 H463.02 C466.76,422.19,468.4,426.32,468.4,426.72 C468.4,427.17,468,427.32,467.66,427.32 C467.06,427.32,466.96,427.02,466.86,426.82 C466.11,425.08,464.52,421.49,459.54,419.15 C458.99,418.85,458.84,418.8,458.84,418.45 C458.84,418.11,459.09,418,459.44,417.8 C463.57,415.86,465.46,413.17,466.81,410.29 C467.01,409.84,467.11,409.59,467.66,409.59 C468,409.59,468.4,409.73,468.4,410.18 C468.4,410.58,466.76,414.72,463.02,417.46 Z " /></g>    </g>
  </g>
</svg>
