<?xml version="1.0" encoding="UTF-8" standalone="no"?>
<!-- Created with Inkscape (http://www.inkscape.org/) -->

<svg
   xmlns:dc="http://purl.org/dc/elements/1.1/"
   xmlns:cc="http://creativecommons.org/ns#"
   xmlns:rdf="http://www.w3.org/1999/02/22-rdf-syntax-ns#"
   xmlns:svg="http://www.w3.org/2000/svg"
   xmlns="http://www.w3.org/2000/svg"
   xmlns:sodipodi="http://sodipodi.sourceforge.net/DTD/sodipodi-0.dtd"
   xmlns:inkscape="http://www.inkscape.org/namespaces/inkscape"
   width="689.9342"
   height="364.66507"
   id="svg2"
   version="1.1"
   inkscape:version="0.48.0 r9654"
   sodipodi:docname="fast_DNI.png">
  <sodipodi:namedview
     id="base"
     pagecolor="#ffffff"
     bordercolor="#666666"
     borderopacity="1.0"
     inkscape:pageopacity="0.0"
     inkscape:pageshadow="2"
     inkscape:zoom="0.98994949"
     inkscape:cx="391.94992"
     inkscape:cy="188.05957"
     inkscape:document-units="px"
     inkscape:current-layer="layer1"
     showgrid="false"
     inkscape:window-width="1366"
     inkscape:window-height="696"
     inkscape:window-x="0"
     inkscape:window-y="24"
     inkscape:window-maximized="1"
     fit-margin-top="0"
     fit-margin-left="0"
     fit-margin-right="0"
     fit-margin-bottom="0" />
  <defs
     id="defs4">
    <marker
       inkscape:stockid="Arrow1Lstart"
       orient="auto"
       refY="0"
       refX="0"
       id="Arrow1Lstart"
       style="overflow:visible">
      <path
         id="path3796"
         d="M 0,0 5,-5 -12.5,0 5,5 0,0 z"
         style="fill-rule:evenodd;stroke:#000000;stroke-width:1pt;marker-start:none"
         transform="matrix(0.8,0,0,0.8,10,0)"
         inkscape:connector-curvature="0" />
    </marker>
    <marker
       inkscape:stockid="Arrow1Lend"
       orient="auto"
       refY="0"
       refX="0"
       id="Arrow1Lend"
       style="overflow:visible">
      <path
         id="path3799"
         d="M 0,0 5,-5 -12.5,0 5,5 0,0 z"
         style="fill-rule:evenodd;stroke:#000000;stroke-width:1pt;marker-start:none"
         transform="matrix(-0.8,0,0,-0.8,-10,0)"
         inkscape:connector-curvature="0" />
    </marker>
  </defs>
  <metadata
     id="metadata7">
    <rdf:RDF>
      <cc:Work
         rdf:about="">
        <dc:format>image/svg+xml</dc:format>
        <dc:type
           rdf:resource="http://purl.org/dc/dcmitype/StillImage" />
        <dc:title></dc:title>
      </cc:Work>
    </rdf:RDF>
  </metadata>
  <g
     inkscape:label="Layer 1"
     inkscape:groupmode="layer"
     id="layer1"
     transform="translate(-43.436558,-4.8339934)">
    <path
       sodipodi:type="arc"
       style="fill:none;stroke:#000000;stroke-width:2;stroke-linecap:butt;stroke-linejoin:miter;stroke-miterlimit:4;stroke-opacity:1;stroke-dasharray:none;stroke-dashoffset:0"
       id="path2985"
       sodipodi:cx="425.71429"
       sodipodi:cy="242.36218"
       sodipodi:rx="142.85715"
       sodipodi:ry="78.571426"
       d="m 568.57144,242.36218 c 0,43.3938 -63.95932,78.57143 -142.85715,78.57143 -78.89782,0 -142.85714,-35.17763 -142.85714,-78.57143 0,-43.3938 63.95932,-78.57142 142.85714,-78.57142 78.89783,0 142.85715,35.17762 142.85715,78.57142 z"
       transform="matrix(0.22322914,0.974766,-0.974766,0.22322914,294.042,-259.6119)" />
    <path
       transform="matrix(0.16912013,0.73849029,-0.73849029,0.16912013,259.45554,-145.6456)"
       d="m 568.57144,242.36218 c 0,43.3938 -63.95932,78.57143 -142.85715,78.57143 -78.89782,0 -142.85714,-35.17763 -142.85714,-78.57143 0,-43.3938 63.95932,-78.57142 142.85714,-78.57142 78.89783,0 142.85715,35.17762 142.85715,78.57142 z"
       sodipodi:ry="78.571426"
       sodipodi:rx="142.85715"
       sodipodi:cy="242.36218"
       sodipodi:cx="425.71429"
       id="path3755"
       style="fill:none;stroke:#000000;stroke-width:2;stroke-linecap:butt;stroke-linejoin:miter;stroke-miterlimit:4;stroke-opacity:1;stroke-dasharray:none;stroke-dashoffset:0"
       sodipodi:type="arc" />
    <path
       sodipodi:type="arc"
       style="fill:none;stroke:#000000;stroke-width:2;stroke-linecap:butt;stroke-linejoin:miter;stroke-miterlimit:4;stroke-opacity:1;stroke-dasharray:none;stroke-dashoffset:0"
       id="path3757"
       sodipodi:cx="425.71429"
       sodipodi:cy="242.36218"
       sodipodi:rx="142.85715"
       sodipodi:ry="78.571426"
       d="m 568.57144,242.36218 c 0,43.3938 -63.95932,78.57143 -142.85715,78.57143 -78.89782,0 -142.85714,-35.17763 -142.85714,-78.57143 0,-43.3938 63.95932,-78.57142 142.85714,-78.57142 78.89783,0 142.85715,35.17762 142.85715,78.57142 z"
       transform="matrix(0.11880824,0.51879533,-0.51879533,0.11880824,228.69971,-44.062906)" />
    <path
       sodipodi:type="arc"
       style="fill:#000000;fill-opacity:1;stroke:#000000;stroke-width:2;stroke-linecap:butt;stroke-linejoin:miter;stroke-miterlimit:4;stroke-opacity:1;stroke-dasharray:none;stroke-dashoffset:0"
       id="path3759"
       sodipodi:cx="129.28572"
       sodipodi:cy="330.21933"
       sodipodi:rx="7.8571429"
       sodipodi:ry="7.1428571"
       d="m 137.14286,330.21933 c 0,3.94489 -3.51776,7.14286 -7.85714,7.14286 -4.33938,0 -7.85714,-3.19797 -7.85714,-7.14286 0,-3.94489 3.51776,-7.14286 7.85714,-7.14286 4.33938,0 7.85714,3.19797 7.85714,7.14286 z"
       transform="matrix(0.63709678,0,0,0.63709678,75.102758,-7.535806)" />
    <path
       style="fill:none;stroke:#000000;stroke-width:1.45193934px;stroke-linecap:butt;stroke-linejoin:miter;stroke-opacity:1;marker-end:url(#Arrow1Lstart)"
       d="m 159.54415,203.53309 194.236,-52.4665 -2.00244,0.5409"
       id="path3763"
       inkscape:connector-curvature="0" />
    <path
       style="fill:none;stroke:#000000;stroke-width:1px;stroke-linecap:butt;stroke-linejoin:miter;stroke-opacity:1"
       d="m 112.39524,72.52175 45.10878,131.0238 -0.46504,-1.35076"
       id="path3767"
       inkscape:connector-curvature="0" />
    <path
       inkscape:connector-curvature="0"
       id="path3769"
       d="m 82.098698,252.17571 138.571422,-89.25944 -1.42857,0.9202"
       style="fill:none;stroke:#000000;stroke-width:1px;stroke-linecap:butt;stroke-linejoin:miter;stroke-opacity:1" />
    <path
       sodipodi:type="arc"
       style="fill:#000000;fill-opacity:1;stroke:#000000;stroke-width:2;stroke-linecap:butt;stroke-linejoin:miter;stroke-miterlimit:4;stroke-opacity:1;stroke-dasharray:none;stroke-dashoffset:0"
       id="path3771"
       sodipodi:cx="129.8046"
       sodipodi:cy="307.62723"
       sodipodi:rx="2.5253813"
       sodipodi:ry="2.2728431"
       d="m 132.32998,307.62723 c 0,1.25525 -1.13065,2.27284 -2.52538,2.27284 -1.39473,0 -2.52539,-1.01759 -2.52539,-2.27284 0,-1.25526 1.13066,-2.27285 2.52539,-2.27285 1.39473,0 2.52538,1.01759 2.52538,2.27285 z"
       transform="translate(3.3303685,-174.89054)" />
    <path
       transform="translate(-6.6696315,-202.89054)"
       d="m 132.32998,307.62723 c 0,1.25525 -1.13065,2.27284 -2.52538,2.27284 -1.39473,0 -2.52539,-1.01759 -2.52539,-2.27284 0,-1.25526 1.13066,-2.27285 2.52539,-2.27285 1.39473,0 2.52538,1.01759 2.52538,2.27285 z"
       sodipodi:ry="2.2728431"
       sodipodi:rx="2.5253813"
       sodipodi:cy="307.62723"
       sodipodi:cx="129.8046"
       id="path3773"
       style="fill:#000000;fill-opacity:1;stroke:#000000;stroke-width:2;stroke-linecap:butt;stroke-linejoin:miter;stroke-miterlimit:4;stroke-opacity:1;stroke-dasharray:none;stroke-dashoffset:0"
       sodipodi:type="arc" />
    <path
       sodipodi:type="arc"
       style="fill:#000000;fill-opacity:1;stroke:#000000;stroke-width:2;stroke-linecap:butt;stroke-linejoin:miter;stroke-miterlimit:4;stroke-opacity:1;stroke-dasharray:none;stroke-dashoffset:0"
       id="path3775"
       sodipodi:cx="129.8046"
       sodipodi:cy="307.62723"
       sodipodi:rx="2.5253813"
       sodipodi:ry="2.2728431"
       d="m 132.32998,307.62723 c 0,1.25525 -1.13065,2.27284 -2.52538,2.27284 -1.39473,0 -2.52539,-1.01759 -2.52539,-2.27284 0,-1.25526 1.13066,-2.27285 2.52539,-2.27285 1.39473,0 2.52538,1.01759 2.52538,2.27285 z"
       transform="translate(-16.669632,-234.89054)" />
    <path
       transform="translate(60.607038,-124.78391)"
       d="m 132.32998,307.62723 c 0,1.25525 -1.13065,2.27284 -2.52538,2.27284 -1.39473,0 -2.52539,-1.01759 -2.52539,-2.27284 0,-1.25526 1.13066,-2.27285 2.52539,-2.27285 1.39473,0 2.52538,1.01759 2.52538,2.27285 z"
       sodipodi:ry="2.2728431"
       sodipodi:rx="2.5253813"
       sodipodi:cy="307.62723"
       sodipodi:cx="129.8046"
       id="path3777"
       style="fill:#000000;fill-opacity:1;stroke:#000000;stroke-width:2;stroke-linecap:butt;stroke-linejoin:miter;stroke-miterlimit:4;stroke-opacity:1;stroke-dasharray:none;stroke-dashoffset:0"
       sodipodi:type="arc" />
    <path
       sodipodi:type="arc"
       style="fill:#000000;fill-opacity:1;stroke:#000000;stroke-width:2;stroke-linecap:butt;stroke-linejoin:miter;stroke-miterlimit:4;stroke-opacity:1;stroke-dasharray:none;stroke-dashoffset:0"
       id="path3779"
       sodipodi:cx="129.8046"
       sodipodi:cy="307.62723"
       sodipodi:rx="2.5253813"
       sodipodi:ry="2.2728431"
       d="m 132.32998,307.62723 c 0,1.25525 -1.13065,2.27284 -2.52538,2.27284 -1.39473,0 -2.52539,-1.01759 -2.52539,-2.27284 0,-1.25526 1.13066,-2.27285 2.52539,-2.27285 1.39473,0 2.52538,1.01759 2.52538,2.27285 z"
       transform="translate(74.607038,-134.78391)" />
    <path
       transform="translate(90.607038,-144.78391)"
       d="m 132.32998,307.62723 c 0,1.25525 -1.13065,2.27284 -2.52538,2.27284 -1.39473,0 -2.52539,-1.01759 -2.52539,-2.27284 0,-1.25526 1.13066,-2.27285 2.52539,-2.27285 1.39473,0 2.52538,1.01759 2.52538,2.27285 z"
       sodipodi:ry="2.2728431"
       sodipodi:rx="2.5253813"
       sodipodi:cy="307.62723"
       sodipodi:cx="129.8046"
       id="path3781"
       style="fill:#000000;fill-opacity:1;stroke:#000000;stroke-width:2;stroke-linecap:butt;stroke-linejoin:miter;stroke-miterlimit:4;stroke-opacity:1;stroke-dasharray:none;stroke-dashoffset:0"
       sodipodi:type="arc" />
    <path
       sodipodi:type="arc"
       style="fill:#000000;fill-opacity:1;stroke:#000000;stroke-width:2;stroke-linecap:butt;stroke-linejoin:miter;stroke-miterlimit:4;stroke-opacity:1;stroke-dasharray:none;stroke-dashoffset:0"
       id="path3783"
       sodipodi:cx="129.8046"
       sodipodi:cy="307.62723"
       sodipodi:rx="2.5253813"
       sodipodi:ry="2.2728431"
       d="m 132.32998,307.62723 c 0,1.25525 -1.13065,2.27284 -2.52538,2.27284 -1.39473,0 -2.52539,-1.01759 -2.52539,-2.27284 0,-1.25526 1.13066,-2.27285 2.52539,-2.27285 1.39473,0 2.52538,1.01759 2.52538,2.27285 z"
       transform="translate(-11.392962,-78.783906)" />
    <path
       transform="translate(-29.392962,-66.783906)"
       d="m 132.32998,307.62723 c 0,1.25525 -1.13065,2.27284 -2.52538,2.27284 -1.39473,0 -2.52539,-1.01759 -2.52539,-2.27284 0,-1.25526 1.13066,-2.27285 2.52539,-2.27285 1.39473,0 2.52538,1.01759 2.52538,2.27285 z"
       sodipodi:ry="2.2728431"
       sodipodi:rx="2.5253813"
       sodipodi:cy="307.62723"
       sodipodi:cx="129.8046"
       id="path3785"
       style="fill:#000000;fill-opacity:1;stroke:#000000;stroke-width:2;stroke-linecap:butt;stroke-linejoin:miter;stroke-miterlimit:4;stroke-opacity:1;stroke-dasharray:none;stroke-dashoffset:0"
       sodipodi:type="arc" />
    <path
       sodipodi:type="arc"
       style="fill:#000000;fill-opacity:1;stroke:#000000;stroke-width:2;stroke-linecap:butt;stroke-linejoin:miter;stroke-miterlimit:4;stroke-opacity:1;stroke-dasharray:none;stroke-dashoffset:0"
       id="path3787"
       sodipodi:cx="129.8046"
       sodipodi:cy="307.62723"
       sodipodi:rx="2.5253813"
       sodipodi:ry="2.2728431"
       d="m 132.32998,307.62723 c 0,1.25525 -1.13065,2.27284 -2.52538,2.27284 -1.39473,0 -2.52539,-1.01759 -2.52539,-2.27284 0,-1.25526 1.13066,-2.27285 2.52539,-2.27285 1.39473,0 2.52538,1.01759 2.52538,2.27285 z"
       transform="translate(-47.392962,-56.783906)" />
    <path
       transform="matrix(0.22322914,0.974766,-0.974766,0.22322914,294.042,-259.6119)"
       d="m 568.57144,242.36218 c 0,43.3938 -63.95932,78.57143 -142.85715,78.57143 -78.89782,0 -142.85714,-35.17763 -142.85714,-78.57143 0,-43.3938 63.95932,-78.57142 142.85714,-78.57142 78.89783,0 142.85715,35.17762 142.85715,78.57142 z"
       sodipodi:ry="78.571426"
       sodipodi:rx="142.85715"
       sodipodi:cy="242.36218"
       sodipodi:cx="425.71429"
       id="path3789"
       style="fill:none;stroke:#000000;stroke-width:2;stroke-linecap:butt;stroke-linejoin:miter;stroke-miterlimit:4;stroke-opacity:1;stroke-dasharray:none;stroke-dashoffset:0"
       sodipodi:type="arc" />
    <g
       transform="matrix(0.7323122,0,0,0.7323122,98.573528,-121.27744)"
       id="g4818">
      <g
         style="font-style:normal;font-variant:normal;font-weight:normal;font-stretch:normal;letter-spacing:normal;word-spacing:normal;text-anchor:start;fill:none;stroke:#000000;stroke-linecap:butt;stroke-linejoin:miter;stroke-miterlimit:10.43299961;stroke-opacity:1;stroke-dasharray:none;stroke-dashoffset:0"
         id="content"
         transform="matrix(1.0629921,0,0,-1.0629921,-186.02362,789.27165)"
         xml:space="preserve"
         stroke-miterlimit="10.433"
         font-style="normal"
         font-variant="normal"
         font-weight="normal"
         font-stretch="normal"
         font-size-adjust="none"
         letter-spacing="normal"
         word-spacing="normal"><polygon
           style="fill:#000000;stroke-width:0"
           points="471.45,441.57 464.78,434.8 465.68,433.9 471.45,438.98 477.18,433.9 478.08,434.8 "
           id="polygon4821" /><path
           style="fill:#000000;stroke-width:0"
           inkscape:connector-curvature="0"
           d="m 477.82,409.59 v -3.89 l 8.82,0.3 v 2.34 c -3.09,0 -3.44,0 -3.44,1.95 v 18.12 l -9.12,-0.39 v -2.34 c 3.09,0 3.44,0 3.44,-1.95 v -9.51 c 0,-4.09 -2.54,-6.72 -6.18,-6.72 -3.83,0 -3.98,1.24 -3.98,3.93 v 16.98 l -9.12,-0.39 v -2.34 c 3.09,0 3.44,0 3.44,-1.95 v -11.6 c 0,-5.33 4.03,-6.43 8.96,-6.43 1.3,0 4.89,0 7.18,3.89 z"
           id="path4823" /></g>    </g>
    <path
       transform="matrix(0.07324276,0.31982631,-0.31982631,0.07324276,202.73216,50.540294)"
       d="m 568.57144,242.36218 c 0,43.3938 -63.95932,78.57143 -142.85715,78.57143 -78.89782,0 -142.85714,-35.17763 -142.85714,-78.57143 0,-43.3938 63.95932,-78.57142 142.85714,-78.57142 78.89783,0 142.85715,35.17762 142.85715,78.57142 z"
       sodipodi:ry="78.571426"
       sodipodi:rx="142.85715"
       sodipodi:cy="242.36218"
       sodipodi:cx="425.71429"
       id="path4854"
       style="fill:none;stroke:#000000;stroke-width:2;stroke-linecap:butt;stroke-linejoin:miter;stroke-miterlimit:4;stroke-opacity:1;stroke-dasharray:none;stroke-dashoffset:0"
       sodipodi:type="arc" />
    <path
       transform="translate(13.330368,-148.89054)"
       d="m 132.32998,307.62723 c 0,1.25525 -1.13065,2.27284 -2.52538,2.27284 -1.39473,0 -2.52539,-1.01759 -2.52539,-2.27284 0,-1.25526 1.13066,-2.27285 2.52539,-2.27285 1.39473,0 2.52538,1.01759 2.52538,2.27285 z"
       sodipodi:ry="2.2728431"
       sodipodi:rx="2.5253813"
       sodipodi:cy="307.62723"
       sodipodi:cx="129.8046"
       id="path4856"
       style="fill:#000000;fill-opacity:1;stroke:#000000;stroke-width:2;stroke-linecap:butt;stroke-linejoin:miter;stroke-miterlimit:4;stroke-opacity:1;stroke-dasharray:none;stroke-dashoffset:0"
       sodipodi:type="arc" />
    <path
       transform="matrix(0.22322914,0.974766,-0.974766,0.22322914,675.21459,-266.71194)"
       d="m 568.57144,242.36218 c 0,43.3938 -63.95932,78.57143 -142.85715,78.57143 -78.89782,0 -142.85714,-35.17763 -142.85714,-78.57143 0,-43.3938 63.95932,-78.57142 142.85714,-78.57142 78.89783,0 142.85715,35.17762 142.85715,78.57142 z"
       sodipodi:ry="78.571426"
       sodipodi:rx="142.85715"
       sodipodi:cy="242.36218"
       sodipodi:cx="425.71429"
       id="path4877"
       style="fill:none;stroke:#000000;stroke-width:2;stroke-linecap:butt;stroke-linejoin:miter;stroke-miterlimit:4;stroke-opacity:1;stroke-dasharray:7.99999999, 7.99999999;stroke-dashoffset:0"
       sodipodi:type="arc" />
    <path
       transform="matrix(0.63709678,0,0,0.63709678,442.27535,-14.635842)"
       d="m 137.14286,330.21933 c 0,3.94489 -3.51776,7.14286 -7.85714,7.14286 -4.33938,0 -7.85714,-3.19797 -7.85714,-7.14286 0,-3.94489 3.51776,-7.14286 7.85714,-7.14286 4.33938,0 7.85714,3.19797 7.85714,7.14286 z"
       sodipodi:ry="7.1428571"
       sodipodi:rx="7.8571429"
       sodipodi:cy="330.21933"
       sodipodi:cx="129.28572"
       id="path4883"
       style="fill:#000000;fill-opacity:1;stroke:#000000;stroke-width:2;stroke-linecap:butt;stroke-linejoin:miter;stroke-miterlimit:4;stroke-opacity:1;stroke-dasharray:none;stroke-dashoffset:0"
       sodipodi:type="arc" />
    <path
       inkscape:connector-curvature="0"
       id="path4885"
       d="m 526.71674,196.43305 194.236,-52.4665 -2.00244,0.5409"
       style="fill:none;stroke:#000000;stroke-width:1.45193934px;stroke-linecap:butt;stroke-linejoin:miter;stroke-opacity:1;marker-end:url(#Arrow1Lstart)" />
    <path
       sodipodi:type="arc"
       style="fill:#000000;fill-opacity:1;stroke:#000000;stroke-width:2;stroke-linecap:butt;stroke-linejoin:miter;stroke-miterlimit:4;stroke-opacity:1;stroke-dasharray:none;stroke-dashoffset:0"
       id="path4897"
       sodipodi:cx="129.8046"
       sodipodi:cy="307.62723"
       sodipodi:rx="2.5253813"
       sodipodi:ry="2.2728431"
       d="m 132.32998,307.62723 c 0,1.25525 -1.13065,2.27284 -2.52538,2.27284 -1.39473,0 -2.52539,-1.01759 -2.52539,-2.27284 0,-1.25526 1.13066,-2.27285 2.52539,-2.27285 1.39473,0 2.52538,1.01759 2.52538,2.27285 z"
       transform="translate(405.63677,-83.312511)" />
    <path
       transform="translate(412.73774,-60.061584)"
       d="m 132.32998,307.62723 c 0,1.25525 -1.13065,2.27284 -2.52538,2.27284 -1.39473,0 -2.52539,-1.01759 -2.52539,-2.27284 0,-1.25526 1.13066,-2.27285 2.52539,-2.27285 1.39473,0 2.52538,1.01759 2.52538,2.27285 z"
       sodipodi:ry="2.2728431"
       sodipodi:rx="2.5253813"
       sodipodi:cy="307.62723"
       sodipodi:cx="129.8046"
       id="path4899"
       style="fill:#000000;fill-opacity:1;stroke:#000000;stroke-width:2;stroke-linecap:butt;stroke-linejoin:miter;stroke-miterlimit:4;stroke-opacity:1;stroke-dasharray:none;stroke-dashoffset:0"
       sodipodi:type="arc" />
    <path
       sodipodi:type="arc"
       style="fill:#000000;fill-opacity:1;stroke:#000000;stroke-width:2;stroke-linecap:butt;stroke-linejoin:miter;stroke-miterlimit:4;stroke-opacity:1;stroke-dasharray:none;stroke-dashoffset:0"
       id="path4901"
       sodipodi:cx="129.8046"
       sodipodi:cy="307.62723"
       sodipodi:rx="2.5253813"
       sodipodi:ry="2.2728431"
       d="m 132.32998,307.62723 c 0,1.25525 -1.13065,2.27284 -2.52538,2.27284 -1.39473,0 -2.52539,-1.01759 -2.52539,-2.27284 0,-1.25526 1.13066,-2.27285 2.52539,-2.27285 1.39473,0 2.52538,1.01759 2.52538,2.27285 z"
       transform="translate(420.40399,-36.221474)" />
    <path
       transform="translate(385.77963,-139.88394)"
       d="m 132.32998,307.62723 c 0,1.25525 -1.13065,2.27284 -2.52538,2.27284 -1.39473,0 -2.52539,-1.01759 -2.52539,-2.27284 0,-1.25526 1.13066,-2.27285 2.52539,-2.27285 1.39473,0 2.52538,1.01759 2.52538,2.27285 z"
       sodipodi:ry="2.2728431"
       sodipodi:rx="2.5253813"
       sodipodi:cy="307.62723"
       sodipodi:cx="129.8046"
       id="path4903"
       style="fill:#000000;fill-opacity:1;stroke:#000000;stroke-width:2;stroke-linecap:butt;stroke-linejoin:miter;stroke-miterlimit:4;stroke-opacity:1;stroke-dasharray:none;stroke-dashoffset:0"
       sodipodi:type="arc" />
    <path
       sodipodi:type="arc"
       style="fill:#000000;fill-opacity:1;stroke:#000000;stroke-width:2;stroke-linecap:butt;stroke-linejoin:miter;stroke-miterlimit:4;stroke-opacity:1;stroke-dasharray:none;stroke-dashoffset:0"
       id="path4905"
       sodipodi:cx="129.8046"
       sodipodi:cy="307.62723"
       sodipodi:rx="2.5253813"
       sodipodi:ry="2.2728431"
       d="m 132.32998,307.62723 c 0,1.25525 -1.13065,2.27284 -2.52538,2.27284 -1.39473,0 -2.52539,-1.01759 -2.52539,-2.27284 0,-1.25526 1.13066,-2.27285 2.52539,-2.27285 1.39473,0 2.52538,1.01759 2.52538,2.27285 z"
       transform="translate(377.77963,-166.74108)" />
    <path
       transform="translate(369.06534,-191.74108)"
       d="m 132.32998,307.62723 c 0,1.25525 -1.13065,2.27284 -2.52538,2.27284 -1.39473,0 -2.52539,-1.01759 -2.52539,-2.27284 0,-1.25526 1.13066,-2.27285 2.52539,-2.27285 1.39473,0 2.52538,1.01759 2.52538,2.27285 z"
       sodipodi:ry="2.2728431"
       sodipodi:rx="2.5253813"
       sodipodi:cy="307.62723"
       sodipodi:cx="129.8046"
       id="path4907"
       style="fill:#000000;fill-opacity:1;stroke:#000000;stroke-width:2;stroke-linecap:butt;stroke-linejoin:miter;stroke-miterlimit:4;stroke-opacity:1;stroke-dasharray:none;stroke-dashoffset:0"
       sodipodi:type="arc" />
    <path
       transform="matrix(0.22322914,0.974766,-0.974766,0.22322914,641.21459,-262.71194)"
       d="m 568.57144,242.36218 c 0,43.3938 -63.95932,78.57143 -142.85715,78.57143 -78.89782,0 -142.85714,-35.17763 -142.85714,-78.57143 0,-43.3938 63.95932,-78.57142 142.85714,-78.57142 78.89783,0 142.85715,35.17762 142.85715,78.57142 z"
       sodipodi:ry="78.571426"
       sodipodi:rx="142.85715"
       sodipodi:cy="242.36218"
       sodipodi:cx="425.71429"
       id="path4911"
       style="fill:none;stroke:#000000;stroke-width:2;stroke-linecap:butt;stroke-linejoin:miter;stroke-miterlimit:4;stroke-opacity:1;stroke-dasharray:7.99999999, 7.99999999;stroke-dashoffset:0"
       sodipodi:type="arc" />
    <g
       id="g4913"
       transform="matrix(0.7323122,0,0,0.7323122,465.74612,-128.37748)">
      <g
         word-spacing="normal"
         letter-spacing="normal"
         font-size-adjust="none"
         font-stretch="normal"
         font-weight="normal"
         font-variant="normal"
         font-style="normal"
         stroke-miterlimit="10.433"
         xml:space="preserve"
         transform="matrix(1.0629921,0,0,-1.0629921,-186.02362,789.27165)"
         id="g4915"
         style="font-style:normal;font-variant:normal;font-weight:normal;font-stretch:normal;letter-spacing:normal;word-spacing:normal;text-anchor:start;fill:none;stroke:#000000;stroke-linecap:butt;stroke-linejoin:miter;stroke-miterlimit:10.43299961;stroke-opacity:1;stroke-dasharray:none;stroke-dashoffset:0"><polygon
           id="polygon4917"
           points="465.68,433.9 471.45,438.98 477.18,433.9 478.08,434.8 471.45,441.57 464.78,434.8 "
           style="fill:#000000;stroke-width:0" /><path
           id="path4919"
           d="m 477.82,409.59 v -3.89 l 8.82,0.3 v 2.34 c -3.09,0 -3.44,0 -3.44,1.95 v 18.12 l -9.12,-0.39 v -2.34 c 3.09,0 3.44,0 3.44,-1.95 v -9.51 c 0,-4.09 -2.54,-6.72 -6.18,-6.72 -3.83,0 -3.98,1.24 -3.98,3.93 v 16.98 l -9.12,-0.39 v -2.34 c 3.09,0 3.44,0 3.44,-1.95 v -11.6 c 0,-5.33 4.03,-6.43 8.96,-6.43 1.3,0 4.89,0 7.18,3.89 z"
           inkscape:connector-curvature="0"
           style="fill:#000000;stroke-width:0" /></g>    </g>
    <path
       inkscape:connector-curvature="0"
       id="path4925"
       d="m 158.39524,206.52175 45.10878,131.0238 -0.46504,-1.35076"
       style="fill:none;stroke:#000000;stroke-width:1px;stroke-linecap:butt;stroke-linejoin:miter;stroke-opacity:1" />
    <path
       sodipodi:type="arc"
       style="fill:#000000;fill-opacity:1;stroke:#000000;stroke-width:2;stroke-linecap:butt;stroke-linejoin:miter;stroke-miterlimit:4;stroke-opacity:1;stroke-dasharray:none;stroke-dashoffset:0"
       id="path4927"
       sodipodi:cx="129.8046"
       sodipodi:cy="307.62723"
       sodipodi:rx="2.5253813"
       sodipodi:ry="2.2728431"
       d="m 132.32998,307.62723 c 0,1.25525 -1.13065,2.27284 -2.52538,2.27284 -1.39473,0 -2.52539,-1.01759 -2.52539,-2.27284 0,-1.25526 1.13066,-2.27285 2.52539,-2.27285 1.39473,0 2.52538,1.01759 2.52538,2.27285 z"
       transform="translate(43.330368,-58.890541)" />
    <path
       transform="translate(51.330368,-32.890541)"
       d="m 132.32998,307.62723 c 0,1.25525 -1.13065,2.27284 -2.52538,2.27284 -1.39473,0 -2.52539,-1.01759 -2.52539,-2.27284 0,-1.25526 1.13066,-2.27285 2.52539,-2.27285 1.39473,0 2.52538,1.01759 2.52538,2.27285 z"
       sodipodi:ry="2.2728431"
       sodipodi:rx="2.5253813"
       sodipodi:cy="307.62723"
       sodipodi:cx="129.8046"
       id="path4929"
       style="fill:#000000;fill-opacity:1;stroke:#000000;stroke-width:2;stroke-linecap:butt;stroke-linejoin:miter;stroke-miterlimit:4;stroke-opacity:1;stroke-dasharray:none;stroke-dashoffset:0"
       sodipodi:type="arc" />
    <path
       sodipodi:type="arc"
       style="fill:#000000;fill-opacity:1;stroke:#000000;stroke-width:2;stroke-linecap:butt;stroke-linejoin:miter;stroke-miterlimit:4;stroke-opacity:1;stroke-dasharray:none;stroke-dashoffset:0"
       id="path4931"
       sodipodi:cx="129.8046"
       sodipodi:cy="307.62723"
       sodipodi:rx="2.5253813"
       sodipodi:ry="2.2728431"
       d="m 132.32998,307.62723 c 0,1.25525 -1.13065,2.27284 -2.52538,2.27284 -1.39473,0 -2.52539,-1.01759 -2.52539,-2.27284 0,-1.25526 1.13066,-2.27285 2.52539,-2.27285 1.39473,0 2.52538,1.01759 2.52538,2.27285 z"
       transform="translate(63.330368,-0.890541)" />
    <path
       transform="translate(74.616078,31.109459)"
       d="m 132.32998,307.62723 c 0,1.25525 -1.13065,2.27284 -2.52538,2.27284 -1.39473,0 -2.52539,-1.01759 -2.52539,-2.27284 0,-1.25526 1.13066,-2.27285 2.52539,-2.27285 1.39473,0 2.52538,1.01759 2.52538,2.27285 z"
       sodipodi:ry="2.2728431"
       sodipodi:rx="2.5253813"
       sodipodi:cy="307.62723"
       sodipodi:cx="129.8046"
       id="path4933"
       style="fill:#000000;fill-opacity:1;stroke:#000000;stroke-width:2;stroke-linecap:butt;stroke-linejoin:miter;stroke-miterlimit:4;stroke-opacity:1;stroke-dasharray:none;stroke-dashoffset:0"
       sodipodi:type="arc" />
    <path
       transform="translate(49.330368,-118.89054)"
       d="m 132.32998,307.62723 c 0,1.25525 -1.13065,2.27284 -2.52538,2.27284 -1.39473,0 -2.52539,-1.01759 -2.52539,-2.27284 0,-1.25526 1.13066,-2.27285 2.52539,-2.27285 1.39473,0 2.52538,1.01759 2.52538,2.27285 z"
       sodipodi:ry="2.2728431"
       sodipodi:rx="2.5253813"
       sodipodi:cy="307.62723"
       sodipodi:cx="129.8046"
       id="path4935"
       style="fill:#000000;fill-opacity:1;stroke:#000000;stroke-width:2;stroke-linecap:butt;stroke-linejoin:miter;stroke-miterlimit:4;stroke-opacity:1;stroke-dasharray:none;stroke-dashoffset:0"
       sodipodi:type="arc" />
    <path
       sodipodi:type="arc"
       style="fill:#000000;fill-opacity:1;stroke:#000000;stroke-width:2;stroke-linecap:butt;stroke-linejoin:miter;stroke-miterlimit:4;stroke-opacity:1;stroke-dasharray:none;stroke-dashoffset:0"
       id="path4937"
       sodipodi:cx="129.8046"
       sodipodi:cy="307.62723"
       sodipodi:rx="2.5253813"
       sodipodi:ry="2.2728431"
       d="m 132.32998,307.62723 c 0,1.25525 -1.13065,2.27284 -2.52538,2.27284 -1.39473,0 -2.52539,-1.01759 -2.52539,-2.27284 0,-1.25526 1.13066,-2.27285 2.52539,-2.27285 1.39473,0 2.52538,1.01759 2.52538,2.27285 z"
       transform="translate(3.3303685,-88.89054)" />
    <g
       transform="translate(152.85714,-359.42857)"
       id="g4945">
      <path
         inkscape:connector-curvature="0"
         id="path4939"
         d="m 391.5545,613.36773 -63.1437,-191.03202 0.65098,1.96941"
         style="fill:none;stroke:#000000;stroke-width:1.45193934px;stroke-linecap:butt;stroke-linejoin:miter;stroke-opacity:1;marker-end:url(#Arrow1Lstart)" />
      <path
         style="fill:none;stroke:#000000;stroke-width:1.45193934px;stroke-linecap:butt;stroke-linejoin:miter;stroke-opacity:1;marker-end:url(#Arrow1Lstart)"
         d="m 351.42095,491.83063 63.1437,191.03202 -0.65098,-1.96941"
         id="path4943"
         inkscape:connector-curvature="0" />
    </g>
    <g
       transform="matrix(0.5970318,0.60946243,-0.60946243,0.5970318,635.02987,-350.98764)"
       id="g4949">
      <path
         style="fill:none;stroke:#000000;stroke-width:1.45193934px;stroke-linecap:butt;stroke-linejoin:miter;stroke-opacity:1;marker-end:url(#Arrow1Lstart)"
         d="m 391.5545,613.36773 -63.1437,-191.03202 0.65098,1.96941"
         id="path4951"
         inkscape:connector-curvature="0" />
      <path
         inkscape:connector-curvature="0"
         id="path4953"
         d="m 351.42095,491.83063 63.1437,191.03202 -0.65098,-1.96941"
         style="fill:none;stroke:#000000;stroke-width:1.45193934px;stroke-linecap:butt;stroke-linejoin:miter;stroke-opacity:1;marker-end:url(#Arrow1Lstart)" />
    </g>
    <path
       sodipodi:type="arc"
       style="fill:#000000;fill-opacity:1;stroke:#000000;stroke-width:2;stroke-linecap:butt;stroke-linejoin:miter;stroke-miterlimit:4;stroke-opacity:1;stroke-dasharray:none;stroke-dashoffset:0"
       id="path4955"
       sodipodi:cx="129.8046"
       sodipodi:cy="307.62723"
       sodipodi:rx="2.5253813"
       sodipodi:ry="2.2728431"
       d="m 132.32998,307.62723 c 0,1.25525 -1.13065,2.27284 -2.52538,2.27284 -1.39473,0 -2.52539,-1.01759 -2.52539,-2.27284 0,-1.25526 1.13066,-2.27285 2.52539,-2.27285 1.39473,0 2.52538,1.01759 2.52538,2.27285 z"
       transform="translate(407.77963,-135.88394)" />
    <path
       transform="translate(383.53597,-87.90169)"
       d="m 132.32998,307.62723 c 0,1.25525 -1.13065,2.27284 -2.52538,2.27284 -1.39473,0 -2.52539,-1.01759 -2.52539,-2.27284 0,-1.25526 1.13066,-2.27285 2.52539,-2.27285 1.39473,0 2.52538,1.01759 2.52538,2.27285 z"
       sodipodi:ry="2.2728431"
       sodipodi:rx="2.5253813"
       sodipodi:cy="307.62723"
       sodipodi:cx="129.8046"
       id="path4957"
       style="fill:#000000;fill-opacity:1;stroke:#000000;stroke-width:2;stroke-linecap:butt;stroke-linejoin:miter;stroke-miterlimit:4;stroke-opacity:1;stroke-dasharray:none;stroke-dashoffset:0"
       sodipodi:type="arc" />
    <path
       sodipodi:type="arc"
       style="fill:#000000;fill-opacity:1;stroke:#000000;stroke-width:2;stroke-linecap:butt;stroke-linejoin:miter;stroke-miterlimit:4;stroke-opacity:1;stroke-dasharray:none;stroke-dashoffset:0"
       id="path4959"
       sodipodi:cx="129.8046"
       sodipodi:cy="307.62723"
       sodipodi:rx="2.5253813"
       sodipodi:ry="2.2728431"
       d="m 132.32998,307.62723 c 0,1.25525 -1.13065,2.27284 -2.52538,2.27284 -1.39473,0 -2.52539,-1.01759 -2.52539,-2.27284 0,-1.25526 1.13066,-2.27285 2.52539,-2.27285 1.39473,0 2.52538,1.01759 2.52538,2.27285 z"
       transform="translate(417.62862,-155.32938)" />
    <path
       transform="translate(370.90906,-65.425803)"
       d="m 132.32998,307.62723 c 0,1.25525 -1.13065,2.27284 -2.52538,2.27284 -1.39473,0 -2.52539,-1.01759 -2.52539,-2.27284 0,-1.25526 1.13066,-2.27285 2.52539,-2.27285 1.39473,0 2.52538,1.01759 2.52538,2.27285 z"
       sodipodi:ry="2.2728431"
       sodipodi:rx="2.5253813"
       sodipodi:cy="307.62723"
       sodipodi:cx="129.8046"
       id="path4961"
       style="fill:#000000;fill-opacity:1;stroke:#000000;stroke-width:2;stroke-linecap:butt;stroke-linejoin:miter;stroke-miterlimit:4;stroke-opacity:1;stroke-dasharray:none;stroke-dashoffset:0"
       sodipodi:type="arc" />
    <path
       sodipodi:type="arc"
       style="fill:#000000;fill-opacity:1;stroke:#000000;stroke-width:2;stroke-linecap:butt;stroke-linejoin:miter;stroke-miterlimit:4;stroke-opacity:1;stroke-dasharray:none;stroke-dashoffset:0"
       id="path4963"
       sodipodi:cx="129.8046"
       sodipodi:cy="307.62723"
       sodipodi:rx="2.5253813"
       sodipodi:ry="2.2728431"
       d="m 132.32998,307.62723 c 0,1.25525 -1.13065,2.27284 -2.52538,2.27284 -1.39473,0 -2.52539,-1.01759 -2.52539,-2.27284 0,-1.25526 1.13066,-2.27285 2.52539,-2.27285 1.39473,0 2.52538,1.01759 2.52538,2.27285 z"
       transform="translate(359.79738,-43.454985)" />
    <path
       transform="translate(359.79738,-43.454985)"
       d="m 132.32998,307.62723 c 0,1.25525 -1.13065,2.27284 -2.52538,2.27284 -1.39473,0 -2.52539,-1.01759 -2.52539,-2.27284 0,-1.25526 1.13066,-2.27285 2.52539,-2.27285 1.39473,0 2.52538,1.01759 2.52538,2.27285 z"
       sodipodi:ry="2.2728431"
       sodipodi:rx="2.5253813"
       sodipodi:cy="307.62723"
       sodipodi:cx="129.8046"
       id="path4965"
       style="fill:#000000;fill-opacity:1;stroke:#000000;stroke-width:2;stroke-linecap:butt;stroke-linejoin:miter;stroke-miterlimit:4;stroke-opacity:1;stroke-dasharray:none;stroke-dashoffset:0"
       sodipodi:type="arc" />
    <g
       id="g5054"
       transform="matrix(0.27295417,0,0,0.27295417,337.63463,77.74051)">
      <g
         word-spacing="normal"
         letter-spacing="normal"
         font-size-adjust="none"
         font-stretch="normal"
         font-weight="normal"
         font-variant="normal"
         font-style="normal"
         stroke-miterlimit="10.433"
         xml:space="preserve"
         transform="matrix(1.0629921,0,0,-1.0629921,-186.02362,789.27165)"
         id="g5056"
         style="font-style:normal;font-variant:normal;font-weight:normal;font-stretch:normal;letter-spacing:normal;word-spacing:normal;text-anchor:start;fill:none;stroke:#000000;stroke-linecap:butt;stroke-linejoin:miter;stroke-miterlimit:10.43299961;stroke-opacity:1;stroke-dasharray:none;stroke-dashoffset:0"><path
           id="path5058"
           d="m 478.37,423.79 0.05,0.04 0.04,0.05 0.05,0.04 0.04,0.04 0.04,0.04 0.05,0.04 0.07,0.08 0.08,0.08 0.07,0.07 0.06,0.06 0.06,0.07 0.05,0.06 0.05,0.06 0.05,0.05 0.04,0.06 0.04,0.05 0.04,0.06 0.03,0.05 0.03,0.05 0.02,0.05 0.02,0.05 0.02,0.05 0.02,0.05 0.02,0.05 0.01,0.05 0.01,0.05 0.01,0.06 0,0.06 0.01,0.05 0,0.07 0.01,0.06 0,0.07 0,0.07 0,0.07 0,0.08 c 0,1.69 -1.09,1.69 -2.04,1.69 h -16.94 c -1.64,0 -2.04,-0.4 -2.04,-2.04 v -2.29 c 0,-0.95 0,-2.05 1.69,-2.05 1.75,0 1.75,1.05 1.75,2.05 v 1.29 h 12.4 l -15.54,-14.74 c -1.04,-1 -1.1,-1.15 -1.1,-1.99 0,-1.7 1.1,-1.7 2.05,-1.7 h 18.88 c 1.09,0.3 1.09,1.3 1.09,2.04 v 2.89 c 0,0.95 0,2.04 -1.69,2.04 -1.75,0 -1.75,-1.04 -1.75,-2.04 v -1.89 h -13.4 z"
           inkscape:connector-curvature="0"
           style="fill:#000000;stroke-width:0" /><path
           id="path5060"
           d="m 505.26,416.76 -0.01,0.58 -0.04,0.57 -0.07,0.56 -0.09,0.56 -0.11,0.54 -0.14,0.53 -0.16,0.52 -0.19,0.51 -0.21,0.49 -0.22,0.49 -0.25,0.46 -0.27,0.46 -0.28,0.43 -0.31,0.42 -0.32,0.41 -0.34,0.38 -0.36,0.37 -0.37,0.35 -0.39,0.33 -0.4,0.31 -0.41,0.29 -0.43,0.26 -0.44,0.25 -0.45,0.22 -0.46,0.2 -0.48,0.17 -0.48,0.15 -0.49,0.12 -0.5,0.1 -0.51,0.07 -0.51,0.04 -0.52,0.02 v -3.04 c 3.59,0 6.77,-3.24 6.77,-7.77 0,-4.63 -3.08,-8.37 -6.77,-8.37 h 0 c -3.69,0 -6.77,3.74 -6.77,8.37 0,4.53 3.24,7.77 6.77,7.77 v 3.04 c -5.58,0 -10.21,-4.94 -10.21,-11.16 0,-6.33 4.73,-11.06 10.21,-11.06 5.48,0 10.21,4.78 10.21,11.06 z"
           inkscape:connector-curvature="0"
           style="fill:#000000;stroke-width:0" /><path
           id="path5062"
           d="m 516.27,425.13 0,0.15 0,0.14 0,0.14 0,0.13 -0.01,0.12 0,0.13 -0.01,0.11 -0.01,0.12 -0.01,0.1 -0.02,0.11 -0.02,0.1 -0.03,0.09 -0.02,0.09 -0.04,0.08 -0.04,0.08 -0.04,0.08 -0.05,0.07 -0.05,0.06 -0.07,0.06 -0.07,0.06 -0.07,0.05 -0.04,0.02 -0.05,0.03 -0.04,0.02 -0.05,0.02 -0.05,0.02 -0.05,0.02 -0.05,0.01 -0.06,0.02 -0.06,0.02 -0.06,0.01 -0.06,0.01 -0.07,0.01 -0.06,0.01 -0.08,0.01 -0.07,0.01 -0.07,0.01 -0.08,0.01 -0.08,0 -0.09,0 -0.08,0.01 -0.09,0 -0.09,0 h -3.64 c -0.8,0 -2.04,0 -2.04,-1.54 0,-1.5 1.29,-1.5 1.99,-1.5 h 2.24 v -15.39 h -2.19 c -0.8,0 -2.04,0 -2.04,-1.54 0,-1.5 1.29,-1.5 1.99,-1.5 h 7.92 c 0.7,0 1.99,0 1.99,1.5 0,1.54 -1.24,1.54 -2.04,1.54 h -2.19 v 8.82 c 0,4.98 3.69,6.87 6.23,6.87 2.64,0 3.33,-1.39 3.33,-4.38 v -11.31 h -1.94 c -0.8,0 -2.04,0 -2.04,-1.54 0,-1.5 1.34,-1.5 2.04,-1.5 h 7.62 c 0.7,0 1.99,0 1.99,1.5 0,1.54 -1.24,1.54 -2.04,1.54 h -2.19 v 11.55 c 0,5.03 -2.54,7.18 -6.48,7.18 -3.33,0 -5.57,-1.7 -6.52,-2.64 z"
           inkscape:connector-curvature="0"
           style="fill:#000000;stroke-width:0" /><path
           id="path5064"
           d="m 555.12,415.52 0.2,0 0.19,0 0.09,0 0.09,0.01 0.09,0.01 0.09,0 0.09,0.02 0.09,0.01 0.08,0.02 0.08,0.02 0.08,0.03 0.08,0.03 0.07,0.04 0.07,0.04 0.07,0.04 0.06,0.05 0.06,0.06 0.06,0.06 0.05,0.08 0.03,0.03 0.02,0.04 0.03,0.05 0.02,0.04 0.02,0.04 0.02,0.05 0.02,0.05 0.02,0.05 0.01,0.06 0.02,0.05 0.01,0.06 0.02,0.06 0.01,0.06 0.01,0.07 0.01,0.07 0.01,0.06 0.01,0.08 0,0.07 0.01,0.08 0,0.08 0,0.08 0,0.09 c 0,5.68 -3.18,10.56 -9.66,10.56 -5.93,0 -10.71,-4.98 -10.71,-11.11 0,-6.08 5.03,-11.11 11.46,-11.11 6.57,0 8.91,4.48 8.91,5.73 0,1.39 -1.44,1.39 -1.74,1.39 -0.9,0 -1.3,-0.14 -1.64,-1.09 -1.1,-2.54 -3.79,-2.99 -5.18,-2.99 -3.74,0 -7.48,2.49 -8.27,6.78 l 0.05,2.98 c 0.69,3.64 3.63,6.38 7.12,6.38 2.59,0 5.68,-1.25 6.13,-6.38 h -13.25 l -0.05,-2.98 z"
           inkscape:connector-curvature="0"
           style="fill:#000000;stroke-width:0" /></g>    </g>
    <path
       transform="translate(427.62862,-175.32938)"
       d="m 132.32998,307.62723 c 0,1.25525 -1.13065,2.27284 -2.52538,2.27284 -1.39473,0 -2.52539,-1.01759 -2.52539,-2.27284 0,-1.25526 1.13066,-2.27285 2.52539,-2.27285 1.39473,0 2.52538,1.01759 2.52538,2.27285 z"
       sodipodi:ry="2.2728431"
       sodipodi:rx="2.5253813"
       sodipodi:cy="307.62723"
       sodipodi:cx="129.8046"
       id="path5135"
       style="fill:#000000;fill-opacity:1;stroke:#000000;stroke-width:2;stroke-linecap:butt;stroke-linejoin:miter;stroke-miterlimit:4;stroke-opacity:1;stroke-dasharray:none;stroke-dashoffset:0"
       sodipodi:type="arc" />
    <g
       transform="matrix(0.66254469,0,0,0.66254469,268.18254,-93.4053)"
       id="g5923">
      <g
         style="font-style:normal;font-variant:normal;font-weight:normal;font-stretch:normal;letter-spacing:normal;word-spacing:normal;text-anchor:start;fill:none;stroke:#000000;stroke-linecap:butt;stroke-linejoin:miter;stroke-miterlimit:10.43299961;stroke-opacity:1;stroke-dasharray:none;stroke-dashoffset:0"
         id="g5925"
         transform="matrix(1.0629921,0,0,-1.0629921,-186.02362,789.27165)"
         xml:space="preserve"
         stroke-miterlimit="10.433"
         font-style="normal"
         font-variant="normal"
         font-weight="normal"
         font-stretch="normal"
         font-size-adjust="none"
         letter-spacing="normal"
         word-spacing="normal"><polygon
           style="fill:#000000;stroke-width:0"
           points="477.72,432.4 479.12,434.24 471.3,440.57 463.48,434.29 464.87,432.35 471.3,436.48 "
           id="polygon5927" /><path
           style="fill:#000000;stroke-width:0"
           inkscape:connector-curvature="0"
           d="m 477.82,409.59 v -3.89 l 8.82,0.3 v 2.34 c -3.09,0 -3.44,0 -3.44,1.95 v 18.12 l -9.12,-0.39 v -2.34 c 3.09,0 3.44,0 3.44,-1.95 v -9.51 c 0,-4.09 -2.54,-6.72 -6.18,-6.72 -3.83,0 -3.98,1.24 -3.98,3.93 v 16.98 l -9.12,-0.39 v -2.34 c 3.09,0 3.44,0 3.44,-1.95 v -11.6 c 0,-5.33 4.03,-6.43 8.96,-6.43 1.3,0 4.89,0 7.18,3.89 z"
           id="path5929" /><path
           style="fill:#000000;stroke-width:0"
           inkscape:connector-curvature="0"
           d="m 498.68,421.18 0,0.04 0,0.04 0,0.04 0,0.04 0,0.04 0,0.04 0,0.03 0,0.04 -0.01,0.03 0,0.03 0,0.04 0,0.03 -0.01,0.02 0,0.03 0,0.03 -0.01,0.03 0,0.02 0,0.02 -0.02,0.05 -0.01,0.04 -0.01,0.04 -0.02,0.03 -0.02,0.03 -0.02,0.03 -0.03,0.03 -0.02,0.02 -0.03,0.02 -0.04,0.02 -0.03,0.01 -0.04,0.01 -0.05,0.02 -0.05,0 -0.02,0.01 -0.03,0 -0.03,0.01 -0.02,0 -0.03,0 -0.03,0 -0.04,0 -0.03,0.01 -0.03,0 -0.04,0 -0.03,0 -0.04,0 -0.04,0 -0.04,0 -0.04,0 -0.04,0 -0.05,0 -0.04,0 c -2.24,-2.19 -5.41,-2.23 -6.84,-2.23 v -1.25 c 0.84,0 3.14,0 5.06,0.97 v -17.78 c 0,-1.15 0,-1.61 -3.49,-1.61 h -1.33 V 399 h 12.45 v 1.25 h -1.32 c -3.49,0 -3.49,0.46 -3.49,1.61 z"
           id="path5931" /></g>    </g>
    <g
       transform="matrix(0.66254469,0,0,0.66254469,376.83782,76.64626)"
       id="g6278">
      <g
         style="font-style:normal;font-variant:normal;font-weight:normal;font-stretch:normal;letter-spacing:normal;word-spacing:normal;text-anchor:start;fill:none;stroke:#000000;stroke-linecap:butt;stroke-linejoin:miter;stroke-miterlimit:10.43299961;stroke-opacity:1;stroke-dasharray:none;stroke-dashoffset:0"
         id="g6280"
         transform="matrix(1.0629921,0,0,-1.0629921,-186.02362,789.27165)"
         xml:space="preserve"
         stroke-miterlimit="10.433"
         font-style="normal"
         font-variant="normal"
         font-weight="normal"
         font-stretch="normal"
         font-size-adjust="none"
         letter-spacing="normal"
         word-spacing="normal"><polygon
           style="fill:#000000;stroke-width:0"
           points="463.48,434.29 464.87,432.35 471.3,436.48 477.72,432.4 479.12,434.24 471.3,440.57 "
           id="polygon6282" /><path
           style="fill:#000000;stroke-width:0"
           inkscape:connector-curvature="0"
           d="m 477.82,409.59 v -3.89 l 8.82,0.3 v 2.34 c -3.09,0 -3.44,0 -3.44,1.95 v 18.12 l -9.12,-0.39 v -2.34 c 3.09,0 3.44,0 3.44,-1.95 v -9.51 c 0,-4.09 -2.54,-6.72 -6.18,-6.72 -3.83,0 -3.98,1.24 -3.98,3.93 v 16.98 l -9.12,-0.39 v -2.34 c 3.09,0 3.44,0 3.44,-1.95 v -11.6 c 0,-5.33 4.03,-6.43 8.96,-6.43 1.3,0 4.89,0 7.18,3.89 z"
           id="path6284" /><path
           style="fill:#000000;stroke-width:0"
           inkscape:connector-curvature="0"
           d="m 504.61,405.35 h -1.19 c -0.1,-0.77 -0.45,-2.83 -0.9,-3.18 -0.28,-0.21 -2.97,-0.21 -3.45,-0.21 h -6.42 c 3.66,3.25 4.88,4.22 6.97,5.86 2.58,2.06 4.99,4.22 4.99,7.54 0,4.21 -3.7,6.79 -8.16,6.79 -4.33,0 -7.25,-3.03 -7.25,-6.24 0,-1.78 1.5,-1.95 1.84,-1.95 0.84,0 1.85,0.59 1.85,1.85 0,0.62 -0.24,1.85 -2.05,1.85 1.08,2.47 3.45,3.24 5.09,3.24 3.48,0 5.3,-2.72 5.3,-5.54 0,-3.04 -2.16,-5.45 -3.28,-6.7 l -8.4,-8.3 c -0.35,-0.31 -0.35,-0.38 -0.35,-1.36 h 14.36 z"
           id="path6286" /></g>    </g>
    <g
       transform="matrix(0.66254469,0,0,0.66254469,384.59327,-117.48295)"
       id="g6460">
      <g
         style="font-style:normal;font-variant:normal;font-weight:normal;font-stretch:normal;letter-spacing:normal;word-spacing:normal;text-anchor:start;fill:none;stroke:#000000;stroke-linecap:butt;stroke-linejoin:miter;stroke-miterlimit:10.43299961;stroke-opacity:1;stroke-dasharray:none;stroke-dashoffset:0"
         word-spacing="normal"
         letter-spacing="normal"
         font-size-adjust="none"
         font-stretch="normal"
         font-weight="normal"
         font-variant="normal"
         font-style="normal"
         stroke-miterlimit="10.433"
         xml:space="preserve"
         transform="matrix(1.0629921,0,0,-1.0629921,-186.02362,789.27165)"
         id="g6462"><polygon
           style="fill:#000000;stroke-width:0"
           id="polygon6464"
           points="463.48,434.29 464.87,432.35 471.3,436.48 477.72,432.4 479.12,434.24 471.3,440.57 " /><path
           style="fill:#000000;stroke-width:0"
           inkscape:connector-curvature="0"
           id="path6466"
           d="m 477.82,409.59 v -3.89 l 8.82,0.3 v 2.34 c -3.09,0 -3.44,0 -3.44,1.95 v 18.12 l -9.12,-0.39 v -2.34 c 3.09,0 3.44,0 3.44,-1.95 v -9.51 c 0,-4.09 -2.54,-6.72 -6.18,-6.72 -3.83,0 -3.98,1.24 -3.98,3.93 v 16.98 l -9.12,-0.39 v -2.34 c 3.09,0 3.44,0 3.44,-1.95 v -11.6 c 0,-5.33 4.03,-6.43 8.96,-6.43 1.3,0 4.89,0 7.18,3.89 z" /><path
           style="fill:#000000;stroke-width:0"
           inkscape:connector-curvature="0"
           id="path6468"
           d="m 498.3,420.79 0,0.06 -0.01,0.05 0,0.05 -0.01,0.06 -0.01,0.06 -0.02,0.05 -0.01,0.06 -0.02,0.06 -0.03,0.05 -0.02,0.06 -0.03,0.05 -0.03,0.06 -0.03,0.05 -0.03,0.05 -0.04,0.05 -0.04,0.05 -0.05,0.05 -0.04,0.05 -0.05,0.04 -0.06,0.05 -0.05,0.04 -0.06,0.03 -0.06,0.04 -0.07,0.03 -0.07,0.03 -0.07,0.02 -0.07,0.02 -0.08,0.02 -0.08,0.02 -0.08,0.01 -0.09,0 -0.09,0.01 c -0.94,0 -1.95,-0.91 -1.95,-1.92 0,-0.59 0.45,-1.32 1.39,-1.32 1.02,0 1.96,0.97 1.96,1.91 z" /><path
           style="fill:#000000;stroke-width:0"
           inkscape:connector-curvature="0"
           id="path6470"
           d="m 491.18,403.08 -0.05,-0.17 -0.05,-0.17 -0.03,-0.08 -0.03,-0.09 -0.02,-0.08 -0.03,-0.09 -0.02,-0.09 -0.02,-0.09 -0.01,-0.1 -0.02,-0.09 -0.01,-0.1 -0.01,-0.05 0,-0.05 0,-0.05 -0.01,-0.06 0,-0.05 0,-0.06 c 0,-1.63 1.4,-2.96 3.31,-2.96 3.49,0 5.02,4.81 5.02,5.33 0,0.46 -0.45,0.46 -0.56,0.46 -0.48,0 -0.52,-0.21 -0.66,-0.59 -0.8,-2.79 -2.33,-4.22 -3.69,-4.22 -0.7,0 -0.88,0.45 -0.88,1.22 0,0.8 0.25,1.46 0.56,2.23 0.35,0.94 0.74,1.88 1.12,2.79 0.31,0.84 1.57,4.01 1.71,4.43 0.1,0.34 0.21,0.77 0.21,1.11 0,1.64 -1.4,2.97 -3.31,2.97 -3.46,0 -5.06,-4.74 -5.06,-5.34 0,-0.45 0.49,-0.45 0.59,-0.45 0.49,0 0.52,0.17 0.63,0.56 0.91,2.99 2.44,4.25 3.73,4.25 0.56,0 0.87,-0.28 0.87,-1.22 0,-0.8 -0.21,-1.32 -1.08,-3.48 z" /></g>    </g>
    <g
       transform="matrix(0.66254469,0,0,0.66254469,237.58009,35.870087)"
       id="g6656">
      <g
         style="font-style:normal;font-variant:normal;font-weight:normal;font-stretch:normal;letter-spacing:normal;word-spacing:normal;text-anchor:start;fill:none;stroke:#000000;stroke-linecap:butt;stroke-linejoin:miter;stroke-miterlimit:10.43299961;stroke-opacity:1;stroke-dasharray:none;stroke-dashoffset:0"
         id="g6658"
         transform="matrix(1.0629921,0,0,-1.0629921,-186.02362,789.27165)"
         xml:space="preserve"
         stroke-miterlimit="10.433"
         font-style="normal"
         font-variant="normal"
         font-weight="normal"
         font-stretch="normal"
         font-size-adjust="none"
         letter-spacing="normal"
         word-spacing="normal"><polygon
           style="fill:#000000;stroke-width:0"
           points="464.87,432.35 471.3,436.48 477.72,432.4 479.12,434.24 471.3,440.57 463.48,434.29 "
           id="polygon6660" /><path
           style="fill:#000000;stroke-width:0"
           inkscape:connector-curvature="0"
           d="m 477.82,409.59 v -3.89 l 8.82,0.3 v 2.34 c -3.09,0 -3.44,0 -3.44,1.95 v 18.12 l -9.12,-0.39 v -2.34 c 3.09,0 3.44,0 3.44,-1.95 v -9.51 c 0,-4.09 -2.54,-6.72 -6.18,-6.72 -3.83,0 -3.98,1.24 -3.98,3.93 v 16.98 l -9.12,-0.39 v -2.34 c 3.09,0 3.44,0 3.44,-1.95 v -11.6 c 0,-5.33 4.03,-6.43 8.96,-6.43 1.3,0 4.89,0 7.18,3.89 z"
           id="path6662" /><path
           style="fill:#000000;stroke-width:0"
           inkscape:connector-curvature="0"
           d="m 496.52,410.64 0.25,0 0.25,-0.02 0.24,-0.02 0.24,-0.04 0.23,-0.05 0.23,-0.06 0.22,-0.07 0.22,-0.09 0.21,-0.09 0.2,-0.11 0.19,-0.11 0.19,-0.13 0.18,-0.13 0.18,-0.15 0.17,-0.16 0.15,-0.17 0.16,-0.18 0.14,-0.2 0.13,-0.2 0.13,-0.21 0.12,-0.23 0.11,-0.23 0.09,-0.25 0.09,-0.26 0.08,-0.27 0.07,-0.28 0.06,-0.29 0.05,-0.3 0.04,-0.31 0.03,-0.32 0.02,-0.33 0,-0.35 c 0,-4.32 -2.51,-5.61 -4.53,-5.61 -1.39,0 -4.46,0.38 -5.93,2.44 1.64,0.07 2.02,1.22 2.02,1.95 0,1.12 -0.83,1.92 -1.91,1.92 -0.98,0 -1.96,-0.59 -1.96,-2.02 0,-3.28 3.63,-5.41 7.85,-5.41 4.84,0 8.19,3.25 8.19,6.73 0,2.72 -2.23,5.44 -6.06,6.24 3.66,1.33 4.98,3.94 4.98,6.07 0,2.76 -3.17,4.81 -7.04,4.81 -3.87,0 -6.84,-1.88 -6.84,-4.67 0,-1.18 0.77,-1.85 1.82,-1.85 1.08,0 1.77,0.8 1.77,1.78 0,1.01 -0.69,1.75 -1.77,1.81 1.22,1.54 3.62,1.92 4.92,1.92 1.56,0 3.76,-0.76 3.76,-3.8 0,-1.46 -0.49,-3.07 -1.39,-4.15 -1.16,-1.32 -2.13,-1.39 -3.87,-1.5 -0.88,-0.07 -0.95,-0.07 -1.12,-0.1 -0.07,0 -0.35,-0.07 -0.35,-0.46 0,-0.49 0.31,-0.49 0.91,-0.49 z"
           id="path6664" /></g>    </g>
    <g
       id="g7059"
       transform="matrix(0.37882101,0,0,0.37882101,350.91709,-86.81589)">
      <g
         id="g7061"
         transform="matrix(1.0629921,0,0,-1.0629921,-186.02362,789.27165)"
         xml:space="preserve"
         stroke-miterlimit="10.433"
         font-style="normal"
         font-variant="normal"
         font-weight="normal"
         font-stretch="normal"
         font-size-adjust="none"
         letter-spacing="normal"
         word-spacing="normal"
         style="font-style:normal;font-variant:normal;font-weight:normal;font-stretch:normal;letter-spacing:normal;word-spacing:normal;text-anchor:start;fill:none;stroke:#000000;stroke-linecap:butt;stroke-linejoin:miter;stroke-miterlimit:10.43299961;stroke-opacity:1;stroke-dasharray:none;stroke-dashoffset:0"><path
           d="m 478.91,421.94 0,0.75 -0.01,0.74 -0.02,0.75 -0.03,0.74 -0.05,0.75 -0.06,0.74 -0.07,0.74 -0.1,0.73 -0.11,0.73 -0.14,0.73 -0.16,0.72 -0.19,0.72 -0.22,0.71 -0.24,0.71 -0.28,0.7 -0.15,0.35 -0.16,0.35 c -2.29,4.78 -6.37,5.58 -8.47,5.58 -2.99,0 -6.62,-1.3 -8.66,-5.93 -1.6,-3.44 -1.85,-7.32 -1.85,-11.31 0,-3.74 0.2,-8.22 2.24,-12.01 2.15,-4.03 5.78,-5.03 8.22,-5.03 v 1.1 c -1.94,0 -4.88,1.25 -5.78,6.03 -0.54,2.99 -0.54,7.57 -0.54,10.51 0,3.19 0,6.47 0.4,9.16 0.94,5.93 4.68,6.38 5.92,6.38 1.65,0 4.94,-0.9 5.88,-5.83 0.5,-2.79 0.5,-6.57 0.5,-9.71 0,-3.74 0,-7.13 -0.55,-10.31 -0.75,-4.73 -3.59,-6.23 -5.83,-6.23 h 0 v -1.1 c 2.69,0 6.48,1.05 8.67,5.78 1.59,3.44 1.84,7.32 1.84,11.26 z"
           id="path7063"
           inkscape:connector-curvature="0"
           style="fill:#000000;stroke-width:0" /><path
           d="m 489.56,408.64 0,0.14 -0.01,0.13 -0.02,0.13 -0.02,0.13 -0.03,0.13 -0.04,0.12 -0.04,0.12 -0.05,0.12 -0.05,0.12 -0.06,0.11 -0.06,0.11 -0.07,0.11 -0.08,0.1 -0.07,0.1 -0.09,0.1 -0.09,0.09 -0.09,0.09 -0.09,0.08 -0.1,0.08 -0.11,0.08 -0.1,0.07 -0.11,0.06 -0.12,0.06 -0.11,0.05 -0.12,0.05 -0.13,0.04 -0.12,0.04 -0.13,0.03 -0.13,0.02 -0.13,0.02 -0.13,0.01 -0.13,0 c -1.45,0 -2.64,-1.19 -2.64,-2.64 0,-1.44 1.19,-2.64 2.64,-2.64 1.44,0 2.63,1.2 2.63,2.64 z"
           id="path7065"
           inkscape:connector-curvature="0"
           style="fill:#000000;stroke-width:0" /><path
           d="m 500.33,409.84 5.28,5.12 c 7.77,6.88 10.76,9.57 10.76,14.55 0,5.68 -4.49,9.67 -10.57,9.67 -5.62,0 -9.31,-4.59 -9.31,-9.02 0,-2.79 2.49,-2.79 2.64,-2.79 0.85,0 2.59,0.6 2.59,2.64 0,1.29 -0.9,2.59 -2.64,2.59 -0.4,0 -0.5,0 -0.65,-0.05 1.15,3.24 3.84,5.08 6.73,5.08 4.53,0 6.67,-4.03 6.67,-8.12 0,-3.98 -2.49,-7.92 -5.23,-11.01 l -9.56,-10.66 c -0.55,-0.54 -0.55,-0.64 -0.55,-1.84 h 18.48 l 1.4,8.67 h -1.25 c -0.25,-1.5 -0.6,-3.69 -1.1,-4.44 -0.34,-0.39 -3.63,-0.39 -4.73,-0.39 z"
           id="path7067"
           inkscape:connector-curvature="0"
           style="fill:#000000;stroke-width:0" /></g>    </g>
    <g
       id="g7273"
       transform="matrix(0.37882101,0,0,0.37882101,323.21926,195.09964)">
      <g
         word-spacing="normal"
         letter-spacing="normal"
         font-size-adjust="none"
         font-stretch="normal"
         font-weight="normal"
         font-variant="normal"
         font-style="normal"
         stroke-miterlimit="10.433"
         xml:space="preserve"
         transform="matrix(1.0629921,0,0,-1.0629921,-186.02362,789.27165)"
         id="g7275"
         style="font-style:normal;font-variant:normal;font-weight:normal;font-stretch:normal;letter-spacing:normal;word-spacing:normal;text-anchor:start;fill:none;stroke:#000000;stroke-linecap:butt;stroke-linejoin:miter;stroke-miterlimit:10.43299961;stroke-opacity:1;stroke-dasharray:none;stroke-dashoffset:0"><path
           id="path7277"
           d="m 478.91,421.94 0,0.75 -0.01,0.74 -0.02,0.75 -0.03,0.74 -0.05,0.75 -0.06,0.74 -0.07,0.74 -0.1,0.73 -0.11,0.73 -0.14,0.73 -0.16,0.72 -0.19,0.72 -0.22,0.71 -0.24,0.71 -0.28,0.7 -0.15,0.35 -0.16,0.35 c -2.29,4.78 -6.37,5.58 -8.47,5.58 -2.99,0 -6.62,-1.3 -8.66,-5.93 -1.6,-3.44 -1.85,-7.32 -1.85,-11.31 0,-3.74 0.2,-8.22 2.24,-12.01 2.15,-4.03 5.78,-5.03 8.22,-5.03 v 1.1 c -1.94,0 -4.88,1.25 -5.78,6.03 -0.54,2.99 -0.54,7.57 -0.54,10.51 0,3.19 0,6.47 0.4,9.16 0.94,5.93 4.68,6.38 5.92,6.38 1.65,0 4.94,-0.9 5.88,-5.83 0.5,-2.79 0.5,-6.57 0.5,-9.71 0,-3.74 0,-7.13 -0.55,-10.31 -0.75,-4.73 -3.59,-6.23 -5.83,-6.23 h 0 v -1.1 c 2.69,0 6.48,1.05 8.67,5.78 1.59,3.44 1.84,7.32 1.84,11.26 z"
           inkscape:connector-curvature="0"
           style="fill:#000000;stroke-width:0" /><path
           id="path7279"
           d="m 489.56,408.64 0,0.14 -0.01,0.13 -0.02,0.13 -0.02,0.13 -0.03,0.13 -0.04,0.12 -0.04,0.12 -0.05,0.12 -0.05,0.12 -0.06,0.11 -0.06,0.11 -0.07,0.11 -0.08,0.1 -0.07,0.1 -0.09,0.1 -0.09,0.09 -0.09,0.09 -0.09,0.08 -0.1,0.08 -0.11,0.08 -0.1,0.07 -0.11,0.06 -0.12,0.06 -0.11,0.05 -0.12,0.05 -0.13,0.04 -0.12,0.04 -0.13,0.03 -0.13,0.02 -0.13,0.02 -0.13,0.01 -0.13,0 c -1.45,0 -2.64,-1.19 -2.64,-2.64 0,-1.44 1.19,-2.64 2.64,-2.64 1.44,0 2.63,1.2 2.63,2.64 z"
           inkscape:connector-curvature="0"
           style="fill:#000000;stroke-width:0" /><path
           id="path7281"
           d="m 512.28,421.84 v -1.59 c 0,-11.66 -5.18,-13.95 -8.07,-13.95 -0.85,0 -3.53,0.1 -4.88,1.79 2.19,0 2.59,1.45 2.59,2.29 0,1.55 -1.19,2.3 -2.29,2.3 -0.8,0 -2.29,-0.45 -2.29,-2.39 0,-3.34 2.69,-5.39 6.92,-5.39 6.43,0 12.51,6.78 12.51,17.49 0,13.4 -5.73,16.79 -10.17,16.79 -2.74,0 -5.18,-0.9 -7.32,-3.14 -2.04,-2.24 -3.19,-4.34 -3.19,-8.07 0,-6.23 4.39,-11.11 9.96,-11.11 l 0.06,1.14 c -0.8,0 -3.09,0 -4.64,3.14 -0.9,1.84 -0.9,4.34 -0.9,6.78 0,2.69 0,5.03 1.05,6.87 1.34,2.49 3.24,3.14 4.98,3.14 2.29,0 3.94,-1.69 4.79,-3.93 0.59,-1.6 0.79,-4.74 0.79,-7.03 0,-4.13 -1.69,-8.97 -6.07,-8.97 h 0 l -0.06,-1.14 c 3.04,0 5.09,2.09 6.23,4.98 z"
           inkscape:connector-curvature="0"
           style="fill:#000000;stroke-width:0" /></g>    </g>
    <text
       xml:space="preserve"
       style="font-size:20px;font-style:normal;font-weight:normal;line-height:125%;letter-spacing:0px;word-spacing:0px;fill:#000000;fill-opacity:1;stroke:none;font-family:Bitstream Vera Sans"
       x="115.15739"
       y="27.402534"
       id="text3146"
       sodipodi:linespacing="125%"><tspan
         sodipodi:role="line"
         id="tspan3148"
         x="115.15739"
         y="27.402534">A</tspan></text>
    <text
       xml:space="preserve"
       style="font-size:20px;font-style:normal;font-weight:normal;line-height:125%;letter-spacing:0px;word-spacing:0px;fill:#000000;fill-opacity:1;stroke:none;font-family:Bitstream Vera Sans"
       x="518.20825"
       y="28.351772"
       id="text3150"
       sodipodi:linespacing="125%"><tspan
         sodipodi:role="line"
         id="tspan3152"
         x="518.20825"
         y="28.351772">B</tspan></text>
    <rect
       style="fill:none;stroke:none"
       id="rect3154"
       width="689.9342"
       height="364.66507"
       x="43.436558"
       y="4.8339934" />
  </g>
</svg>
